<svg xmlns="http://www.w3.org/2000/svg" width="614.71" height="205.08" viewBox="0 0 162.642 54.261"><g font-weight="400" font-family="OTADESIGN Rounded" letter-spacing="0" word-spacing="0"><g style="line-height:476.69509888px;-inkscape-font-specification:'OTADESIGN Rounded'"><path style="-inkscape-font-specification:'OTADESIGN Rounded'" d="M27.595 34.59c-1.676.006-3.115-1.004-3.793-2.179-.363-.513-1.08-.696-1.09 0v3.214c0 1.291-.47 2.408-1.412 3.35-.915.914-2.031 1.371-3.35 1.371-1.29 0-2.407-.457-3.349-1.372-.914-.941-1.372-2.058-1.372-3.349V17.95c0-.995.283-1.896.848-2.703.591-.834 1.345-1.413 2.26-1.735a4.632 4.632 0 0 1 1.613-.283c1.453 0 2.664.565 3.632 1.695.511.565.807.86.888.888 0 0 3.836 4.639 3.944 4.72.108.08.424.697 1.18.697.758 0 1.115-.617 1.222-.698.108-.08 3.944-4.72 3.944-4.72.027.028.31-.268.847-.887.996-1.13 2.22-1.695 3.673-1.695.538 0 1.076.094 1.614.283.914.322 1.654.9 2.22 1.735.591.807.887 1.708.887 2.703v17.675c0 1.291-.47 2.408-1.412 3.35-.915.914-2.032 1.371-3.35 1.371-1.291 0-2.407-.457-3.35-1.372-.914-.941-1.371-2.058-1.371-3.349v-3.214c-.08-.877-.855-.324-1.13 0-.726 1.345-2.118 2.173-3.793 2.18zm20.211-13.21q-1.695 0-2.905-1.17-1.17-1.21-1.17-2.905 0-1.695 1.17-2.865 1.21-1.21 2.905-1.21 1.695 0 2.906 1.21 1.21 1.17 1.21 2.865 0 1.695-1.21 2.905-1.211 1.17-2.906 1.17zm.04.808q1.695 0 2.866 1.21 1.21 1.21 1.21 2.906v9.967q0 1.695-1.21 2.905-1.17 1.17-2.866 1.17-1.694 0-2.905-1.17-1.21-1.21-1.21-2.905v-9.967q0-1.695 1.21-2.906 1.21-1.21 2.905-1.21z" aria-label="Mi" font-size="141.034"/></g><path style="line-height:136.34428406px;-inkscape-font-specification:'OTADESIGN Rounded'" d="M60.925 27.24q.968.243 2.42.525 2.42.403 3.792 1.29 2.582 1.695 2.582 5.083 0 2.743-1.815 4.478-2.098 2.017-5.85 2.017-2.742 0-6.13-.767-1.09-.242-1.776-1.089-.645-.847-.645-1.896 0-1.29.887-2.178.928-.928 2.179-.928.363 0 .685.081 1.17.242 4.478.605.444 0 .968-.04.202 0 .202-.242.04-.202-.242-.283-1.372-.242-2.542-.524-1.33-.282-1.896-.484-1.129-.323-1.895-.847-2.582-1.694-2.622-5.083 0-2.702 1.855-4.477 2.26-2.179 6.414-1.977 2.783.121 5.567.726 1.048.242 1.734 1.09.686.846.686 1.936 0 1.25-.928 2.178-.887.887-2.178.887-.323 0-.645-.08-1.17-.242-4.518-.565-.404-.04-.767 0-.323.04-.323.242.04.242.323.323zm17.555 0q.968.243 2.42.525 2.42.403 3.792 1.29 2.581 1.695 2.581 5.083 0 2.743-1.815 4.478-2.098 2.017-5.849 2.017-2.743 0-6.131-.767-1.09-.242-1.775-1.089-.646-.847-.646-1.896 0-1.29.888-2.178.927-.928 2.178-.928.363 0 .686.081 1.17.242 4.477.605.444 0 .968-.04.202 0 .202-.242.04-.202-.242-.283-1.371-.242-2.541-.524-1.331-.282-1.896-.484-1.13-.323-1.896-.847-2.582-1.694-2.622-5.083 0-2.702 1.855-4.477 2.26-2.179 6.414-1.977 2.784.121 5.567.726 1.049.242 1.735 1.09.685.846.685 1.936 0 1.25-.927 2.178-.888.887-2.179.887-.322 0-.645-.08-1.17-.242-4.518-.565-.403-.04-.767 0-.322.04-.322.242.04.242.322.323zm26.075 3.335q.12.08 2.864 2.783 1.25 1.21 1.25 2.945 0 1.613-1.17 2.864-1.17 1.21-2.904 1.21-1.654 0-2.864-1.17l-4.034-3.913q-.161-.12-.323-.12-.322 0-.322 1.21 0 1.694-1.21 2.904-1.21 1.17-2.905 1.17-1.694 0-2.904-1.17-1.17-1.21-1.17-2.905V17.586q0-1.694 1.17-2.864 1.21-1.21 2.904-1.21t2.904 1.21q1.21 1.17 1.21 2.864v6.293q0 .403.283.524.242.121.524-.08.162-.081 4.841-3.188 1.049-.645 2.259-.645 2.219 0 3.429 1.815.645 1.05.645 2.26 0 2.218-1.815 3.428l-2.541 1.614v.04l-.081.04q-.565.363-.04.888zm15.599 10.058q-4.195 0-7.18-2.945-2.945-2.985-2.945-7.18 0-4.155 2.945-7.1 2.985-2.985 7.18-2.985 4.155 0 6.979 2.784.928.927.928 2.259 0 1.33-.928 2.259l-4.68 4.639q-1.008 1.008-2.016 1.008-1.453 0-2.26-.807-.806-.807-.806-2.138 0-1.29.928-2.218l.806-.847q.162-.121.081-.243-.12-.08-.323-.04-.806.202-1.371.807-1.13 1.09-1.13 2.622 0 1.573 1.09 2.703 1.13 1.089 2.702 1.089 1.533 0 2.622-1.13.928-.927 2.26-.927 1.33 0 2.258.927.928.928.928 2.26 0 1.33-.928 2.258-2.985 2.945-7.14 2.945zm29.259-15.786v5.607q0 .564-.08 1.21v7.382q0 4.518-2.744 7.22-2.702 2.703-7.301 2.703-2.662 0-4.8-1.008-2.138-.968-2.138-3.348 0-.807.363-1.533.968-2.179 3.348-2.179.565 0 1.573.323 1.009.323 1.654.323 1.694 0 2.219-.726.201-.283.08-.444-.161-.242-.564-.161-.686.12-1.493.12-4.074 0-6.979-2.904-2.904-2.904-2.904-6.978v-5.607q0-1.695 1.17-2.864 1.21-1.21 2.904-1.21t2.905 1.21q1.21 1.17 1.21 2.864v5.607q0 .685.484 1.21.524.484 1.21.484.726 0 1.21-.484.484-.525.484-1.21v-5.607q0-1.695 1.21-2.864 1.21-1.21 2.905-1.21 1.694 0 2.864 1.21 1.21 1.17 1.21 2.864z"/></g></svg>