<svg xmlns="http://www.w3.org/2000/svg" width="1440" height="900"><path d="M667 476l-37-109-63 93z" fill="#121931" stroke="#121931" stroke-width="1.51"/><path d="M630 367l-54-56-9 149z" fill="#121c31" stroke="#121c31" stroke-width="1.51"/><path d="M567 460l64 119 36-103z" fill="#121731" stroke="#121731" stroke-width="1.51"/><path d="M567 460l-11 124 75-5z" fill="#131830" stroke="#131830" stroke-width="1.51"/><path d="M437 475l119 109 11-124z" fill="#121a31" stroke="#121a31" stroke-width="1.51"/><path d="M667 476l106-127-143 18z" fill="#121831" stroke="#121831" stroke-width="1.51"/><path d="M630 367l-50-112-4 56z" fill="#122031" stroke="#122031" stroke-width="1.51"/><path d="M813 438l-40-89-106 127z" fill="#121530" stroke="#121530" stroke-width="1.51"/><path d="M576 311L437 475l130-15z" fill="#111d31" stroke="#111d31" stroke-width="1.51"/><path d="M642 193l-62 62 50 112z" fill="#112131" stroke="#112131" stroke-width="1.51"/><path d="M800 574l13-136-146 38z" fill="#121330" stroke="#121330" stroke-width="1.51"/><path d="M400 299l37 176 139-164z" fill="#122231" stroke="#122231" stroke-width="1.51"/><path d="M556 584l27 63 48-68z" fill="#14162f" stroke="#14162f" stroke-width="1.51"/><path d="M631 579l169-5-133-98z" fill="#121430" stroke="#121430" stroke-width="1.51"/><path d="M423 693l160-46-27-63z" fill="#14192f" stroke="#14192f" stroke-width="1.51"/><path d="M653 680l147-106-169 5z" fill="#13132f" stroke="#13132f" stroke-width="1.51"/><path d="M773 349L642 193l-12 174z" fill="#111d31" stroke="#111d31" stroke-width="1.51"/><path d="M813 438l61-15-101-74z" fill="#131630" stroke="#131630" stroke-width="1.51"/><path d="M773 349l16-146-147-10z" fill="#121f31" stroke="#121f31" stroke-width="1.51"/><path d="M906 568l-32-145-61 15z" fill="#13122f" stroke="#13122f" stroke-width="1.51"/><path d="M583 647l70 33-22-101z" fill="#14152e" stroke="#14152e" stroke-width="1.51"/><path d="M449 219l-49 80 176 12z" fill="#112631" stroke="#112631" stroke-width="1.51"/><path d="M449 219l127 92 4-56z" fill="#112431" stroke="#112431" stroke-width="1.51"/><path d="M437 475l-26 124 145-15z" fill="#131c30" stroke="#131c30" stroke-width="1.51"/><path d="M556 765l110 3-13-88z" fill="#15142d" stroke="#15142d" stroke-width="1.51"/><path d="M327 557l84 42 26-124z" fill="#131f30" stroke="#131f30" stroke-width="1.51"/><path d="M572 116L449 219l131 36z" fill="#102731" stroke="#102731" stroke-width="1.51"/><path d="M920 229l-131-26-16 146z" fill="#131d30" stroke="#131d30" stroke-width="1.51"/><path d="M874 423l35-68-136-6z" fill="#131730" stroke="#131730" stroke-width="1.51"/><path d="M1018 299l-109 56 131 58z" fill="#14172e" stroke="#14172e" stroke-width="1.51"/><path d="M642 193l-70-77 8 139z" fill="#112631" stroke="#112631" stroke-width="1.51"/><path d="M802 140l-163-19 3 72z" fill="#112531" stroke="#112531" stroke-width="1.51"/><path d="M800 574l106-6-93-130z" fill="#13122f" stroke="#13122f" stroke-width="1.51"/><path d="M860 653l46-85-106 6zm-207 27l139 16 8-122z" fill="#14112e" stroke="#14112e" stroke-width="1.51"/><path d="M639 121l-67-5 70 77z" fill="#102731" stroke="#102731" stroke-width="1.51"/><path d="M280 464l47 93 110-82z" fill="#122131" stroke="#122131" stroke-width="1.51"/><path d="M792 696l68-43-60-79z" fill="#15102d" stroke="#15102d" stroke-width="1.51"/><path d="M315 686l108 7-12-94z" fill="#141d2f" stroke="#141d2f" stroke-width="1.51"/><path d="M411 599l12 94 133-109z" fill="#141b2f" stroke="#141b2f" stroke-width="1.51"/><path d="M653 680l13 88 126-72z" fill="#14112d" stroke="#14112d" stroke-width="1.51"/><path d="M400 299l-102 63 139 113z" fill="#112431" stroke="#112431" stroke-width="1.51"/><path d="M289 189l9 173 102-63z" fill="#0f2a31" stroke="#0f2a31" stroke-width="1.51"/><path d="M556 765l97-85-70-33z" fill="#15152e" stroke="#15152e" stroke-width="1.51"/><path d="M789 203l13-63-160 53z" fill="#112231" stroke="#112231" stroke-width="1.51"/><path d="M920 229l-118-89-13 63z" fill="#132130" stroke="#132130" stroke-width="1.51"/><path d="M423 693l133 72 27-118z" fill="#15182e" stroke="#15182e" stroke-width="1.51"/><path d="M298 362l-18 102 157 11z" fill="#112331" stroke="#112331" stroke-width="1.51"/><path d="M909 355l11-126-147 120z" fill="#131a30" stroke="#131a30" stroke-width="1.51"/><path d="M1018 299l-98-70-11 126z" fill="#141a2f" stroke="#141a2f" stroke-width="1.51"/><path d="M675 877l73-68-82-41z" fill="#17112d" stroke="#17112d" stroke-width="1.51"/><path d="M423 693l20 88 113-16z" fill="#16192e" stroke="#16192e" stroke-width="1.51"/><path d="M336 786l107-5-20-88z" fill="#161c2d" stroke="#161c2d" stroke-width="1.51"/><path d="M792 696l132 101-64-144z" fill="#150e2c" stroke="#150e2c" stroke-width="1.51"/><path d="M666 768l82 41 44-113z" fill="#150f2d" stroke="#150f2d" stroke-width="1.51"/><path d="M675 877l-9-109-110-3z" fill="#17132d" stroke="#17132d" stroke-width="1.51"/><path d="M327 557l-12 129 96-87z" fill="#141f2f" stroke="#141f2f" stroke-width="1.51"/><path d="M224 597l91 89 12-129z" fill="#14222f" stroke="#14222f" stroke-width="1.51"/><path d="M566 23L421 77l151 39z" fill="#132a2e" stroke="#132a2e" stroke-width="1.51"/><path d="M572 116L421 77l28 142z" fill="#0e2d31" stroke="#0e2d31" stroke-width="1.51"/><path d="M449 219l-160-30 111 110z" fill="#0f2b31" stroke="#0f2b31" stroke-width="1.51"/><path d="M566 23l6 93 67 5z" fill="#13282f" stroke="#13282f" stroke-width="1.51"/><path d="M644-20l-78 43 73 98z" fill="#16272d" stroke="#16272d" stroke-width="1.51"/><path d="M328 133l-39 56 160 30z" fill="#0d2f31" stroke="#0d2f31" stroke-width="1.51"/><path d="M171 486l53 111 56-133z" fill="#13232f" stroke="#13232f" stroke-width="1.51"/><path d="M1040 413l-131-58-35 68z" fill="#14152f" stroke="#14152f" stroke-width="1.51"/><path d="M920 229L902 89l-100 51z" fill="#132230" stroke="#132230" stroke-width="1.51"/><path d="M1020 585l-114-17 112 92z" fill="#150f2c" stroke="#150f2c" stroke-width="1.51"/><path d="M1020 585l20-172-134 155z" fill="#14102d" stroke="#14102d" stroke-width="1.51"/><path d="M906 568l134-155-166 10z" fill="#13122f" stroke="#13122f" stroke-width="1.51"/><path d="M421 77l-93 56 121 86z" fill="#0d2f31" stroke="#0d2f31" stroke-width="1.51"/><path d="M1018 299l-31-82-67 12z" fill="#141d2f" stroke="#141d2f" stroke-width="1.51"/><path d="M755-6L644-20l-5 141z" fill="#16242d" stroke="#16242d" stroke-width="1.51"/><path d="M1018 660l-112-92-46 85z" fill="#15102c" stroke="#15102c" stroke-width="1.51"/><path d="M190 365l90 99 18-102z" fill="#102731" stroke="#102731" stroke-width="1.51"/><path d="M280 464l-56 133 103-40z" fill="#122330" stroke="#122330" stroke-width="1.51"/><path d="M225 235l-35 130 108-3z" fill="#102b31" stroke="#102b31" stroke-width="1.51"/><path d="M1009 122L902 89l18 140z" fill="#14222f" stroke="#14222f" stroke-width="1.51"/><path d="M289 189l-64 46 73 127z" fill="#0d2e31" stroke="#0d2e31" stroke-width="1.51"/><path d="M185 70l40 165 64-46z" fill="#0c3330" stroke="#0c3330" stroke-width="1.51"/><path d="M527 877h148L556 765z" fill="#19152d" stroke="#19152d" stroke-width="1.51"/><path d="M976 767l42-107-158-7z" fill="#160e2c" stroke="#160e2c" stroke-width="1.51"/><path d="M566 23L439-17l-18 94z" fill="#152c2c" stroke="#152c2c" stroke-width="1.51"/><path d="M755-6L639 121l163 19z" fill="#14242f" stroke="#14242f" stroke-width="1.51"/><path d="M190 365l-19 121 109-22z" fill="#132430" stroke="#132430" stroke-width="1.51"/><path d="M902 89L755-6l47 146z" fill="#15232e" stroke="#15232e" stroke-width="1.51"/><path d="M924 797L792 696l-44 113z" fill="#160e2c" stroke="#160e2c" stroke-width="1.51"/><path d="M1020 585l86-108-66-64z" fill="#14102d" stroke="#14102d" stroke-width="1.51"/><path d="M443 781l84 96 29-112z" fill="#17182d" stroke="#17182d" stroke-width="1.51"/><path d="M427 924l100-47-84-96z" fill="#1b192d" stroke="#1b192d" stroke-width="1.51"/><path d="M315 686l21 100 87-93z" fill="#151e2e" stroke="#151e2e" stroke-width="1.51"/><path d="M201 784l135 2-21-100z" fill="#16202d" stroke="#16202d" stroke-width="1.51"/><path d="M779 911l145-114-176 12z" fill="#190e2c" stroke="#190e2c" stroke-width="1.51"/><path d="M421 77L296-6l32 139z" fill="#10312e" stroke="#10312e" stroke-width="1.51"/><path d="M328 133L185 70l104 119z" fill="#093431" stroke="#093431" stroke-width="1.51"/><path d="M545-110L439-17l127 40z" fill="#18292a" stroke="#18292a" stroke-width="1.51"/><path d="M1098 562l8-85-86 108z" fill="#150f2d" stroke="#150f2d" stroke-width="1.51"/><path d="M1040 413l109-48-131-66z" fill="#15162e" stroke="#15162e" stroke-width="1.51"/><path d="M1135 188l-126-66-22 95z" fill="#14202e" stroke="#14202e" stroke-width="1.51"/><path d="M224 597l-35 54 126 35z" fill="#15222e" stroke="#15222e" stroke-width="1.51"/><path d="M122 584l67 67 35-54z" fill="#16212d" stroke="#16212d" stroke-width="1.51"/><path d="M1095 646l3-84-78 23z" fill="#160e2c" stroke="#160e2c" stroke-width="1.51"/><path d="M924 797l52-30-116-114z" fill="#160d2b" stroke="#160d2b" stroke-width="1.51"/><path d="M1095 646l-75-61-2 75z" fill="#160e2b" stroke="#160e2b" stroke-width="1.51"/><path d="M902 89L855-47 755-6z" fill="#18222b" stroke="#18222b" stroke-width="1.51"/><path d="M987 217l22-95-89 107z" fill="#14202f" stroke="#14202f" stroke-width="1.51"/><path d="M1135 188l-148 29 31 82z" fill="#141c2e" stroke="#141c2e" stroke-width="1.51"/><path d="M675 877l104 34-31-102z" fill="#1a102d" stroke="#1a102d" stroke-width="1.51"/><path d="M924 797l108 103-56-133z" fill="#190d2a" stroke="#190d2a" stroke-width="1.51"/><path d="M758 1032l21-121-104-34z" fill="#1d102d" stroke="#1d102d" stroke-width="1.51"/><path d="M1153 782l-58-136-77 14z" fill="#170c2b" stroke="#170c2b" stroke-width="1.51"/><path d="M1262 481l-113-116-43 112z" fill="#15102d" stroke="#15102d" stroke-width="1.51"/><path d="M171 486l-49 98 102 13z" fill="#16222d" stroke="#16222d" stroke-width="1.51"/><path d="M70 425l52 159 49-98z" fill="#17232c" stroke="#17232c" stroke-width="1.51"/><path d="M70 425l101 61 19-121z" fill="#15242e" stroke="#15242e" stroke-width="1.51"/><path d="M527 877l39 153 109-153z" fill="#1d152d" stroke="#1d152d" stroke-width="1.51"/><path d="M336 786l14 96 93-101z" fill="#181d2d" stroke="#181d2d" stroke-width="1.51"/><path d="M201 784l149 98-14-96z" fill="#18202d" stroke="#18202d" stroke-width="1.51"/><path d="M201 784l114-98-126-35z" fill="#15212d" stroke="#15212d" stroke-width="1.51"/><path d="M1106 477l43-112-109 48z" fill="#14122d" stroke="#14122d" stroke-width="1.51"/><path d="M1262 481l-156-4-8 85z" fill="#150e2c" stroke="#150e2c" stroke-width="1.51"/><path d="M689-114l-144 4 99 90z" fill="#1b2427" stroke="#1b2427" stroke-width="1.51"/><path d="M644-20l-99-90 21 133z" fill="#19272a" stroke="#19272a" stroke-width="1.51"/><path d="M1028 16L855-47l47 136z" fill="#19212a" stroke="#19212a" stroke-width="1.51"/><path d="M350 882l77 42 16-143z" fill="#1b1c2d" stroke="#1b1c2d" stroke-width="1.51"/><path d="M439-17L296-6l125 83z" fill="#142e2c" stroke="#142e2c" stroke-width="1.51"/><path d="M225 235L80 349l110 16z" fill="#132a2e" stroke="#132a2e" stroke-width="1.51"/><path d="M689-114l-45 94L755-6z" fill="#192229" stroke="#192229" stroke-width="1.51"/><path d="M439-17l-115-91L296-6z" fill="#172e29" stroke="#172e29" stroke-width="1.51"/><path d="M753-160l-64 46L755-6z" fill="#1c2127" stroke="#1c2127" stroke-width="1.51"/><path d="M90 203L80 349l145-114z" fill="#132d2d" stroke="#132d2d" stroke-width="1.51"/><path d="M102 767l99 17-12-133z" fill="#18202b" stroke="#18202b" stroke-width="1.51"/><path d="M80 349l-10 76 120-60z" fill="#16262d" stroke="#16262d" stroke-width="1.51"/><path d="M1009 122l19-106-126 73z" fill="#16212c" stroke="#16212c" stroke-width="1.51"/><path d="M1149 365l-14-177-117 111z" fill="#15192e" stroke="#15192e" stroke-width="1.51"/><path d="M296-6L185 70l143 63z" fill="#0f332e" stroke="#0f332e" stroke-width="1.51"/><path d="M779 911l114 26 31-140z" fill="#1b0e2b" stroke="#1b0e2b" stroke-width="1.51"/><path d="M976 767l177 15-135-122z" fill="#170c2a" stroke="#170c2a" stroke-width="1.51"/><path d="M758 1032l135-95-114-26z" fill="#1f0f2c" stroke="#1f0f2c" stroke-width="1.51"/><path d="M1131 95l-103-79-19 106z" fill="#17212c" stroke="#17212c" stroke-width="1.51"/><path d="M855-47L753-160l2 154z" fill="#1b2128" stroke="#1b2128" stroke-width="1.51"/><path d="M123 103L90 203l135 32z" fill="#11312e" stroke="#11312e" stroke-width="1.51"/><path d="M80 349l-94 14 84 62z" fill="#18252b" stroke="#18252b" stroke-width="1.51"/><path d="M1028 16L881-96l-26 49z" fill="#1b2028" stroke="#1b2028" stroke-width="1.51"/><path d="M185 70l-62 33 102 132z" fill="#0e342e" stroke="#0e342e" stroke-width="1.51"/><path d="M118-15l5 118 62-33z" fill="#15322a" stroke="#15322a" stroke-width="1.51"/><path d="M296-6l-114-6 3 82z" fill="#13322a" stroke="#13322a" stroke-width="1.51"/><path d="M545-110l-82-36-24 129z" fill="#1a2927" stroke="#1a2927" stroke-width="1.51"/><path d="M753-160l-290 14 82 36z" fill="#1d2525" stroke="#1d2525" stroke-width="1.51"/><path d="M753-160l-208 50 144-4z" fill="#1d2226" stroke="#1d2226" stroke-width="1.51"/><path d="M122 584l-58 62 125 5z" fill="#18212b" stroke="#18212b" stroke-width="1.51"/><path d="M-55 555l119 91 58-62z" fill="#1a2029" stroke="#1a2029" stroke-width="1.51"/><path d="M465 1018l101 12-39-153z" fill="#20182d" stroke="#20182d" stroke-width="1.51"/><path d="M465 1018l62-141-100 47z" fill="#1f1a2d" stroke="#1f1a2d" stroke-width="1.51"/><path d="M465 1018l-38-94-129 124z" fill="#211c2d" stroke="#211c2d" stroke-width="1.51"/><path d="M881-96l-128-64L855-47z" fill="#1c2026" stroke="#1c2026" stroke-width="1.51"/><path d="M1248 72l-117 23 4 93z" fill="#16212d" stroke="#16212d" stroke-width="1.51"/><path d="M1135 188l-4-93-122 27z" fill="#15222e" stroke="#15222e" stroke-width="1.51"/><path d="M298 1048l129-124-77-42z" fill="#1f1e2d" stroke="#1f1e2d" stroke-width="1.51"/><path d="M463-146l-139 38 115 91z" fill="#1a2c27" stroke="#1a2c27" stroke-width="1.51"/><path d="M696 1054l62-22-83-155z" fill="#20102d" stroke="#20102d" stroke-width="1.51"/><path d="M201 784l-31 100 180-2z" fill="#1b212d" stroke="#1b212d" stroke-width="1.51"/><path d="M64 646l38 121 87-116z" fill="#18202a" stroke="#18202a" stroke-width="1.51"/><path d="M913 1005l119-105-139 37z" fill="#1f0d2b" stroke="#1f0d2b" stroke-width="1.51"/><path d="M893 937l139-37-108-103z" fill="#1c0d2b" stroke="#1c0d2b" stroke-width="1.51"/><path d="M207-137L182-12l114 6z" fill="#173127" stroke="#173127" stroke-width="1.51"/><path d="M566 1030l130 24-21-177z" fill="#20132d" stroke="#20132d" stroke-width="1.51"/><path d="M298 1048l398 6-130-24z" fill="#23182d" stroke="#23182d" stroke-width="1.51"/><path d="M1089 882l64-100-177-15z" fill="#1a0b2a" stroke="#1a0b2a" stroke-width="1.51"/><path d="M1255 588l7-107-164 81z" fill="#160d2c" stroke="#160d2c" stroke-width="1.51"/><path d="M70 425l-91 60 143 99z" fill="#19222b" stroke="#19222b" stroke-width="1.51"/><path d="M-5 194l-9 169 94-14z" fill="#18292a" stroke="#18292a" stroke-width="1.51"/><path d="M-5 194l85 155 10-146z" fill="#162d2b" stroke="#162d2b" stroke-width="1.51"/><path d="M-5 194l95 9 33-100z" fill="#13312b" stroke="#13312b" stroke-width="1.51"/><path d="M1255 588l-157-26-3 84z" fill="#170d2b" stroke="#170d2b" stroke-width="1.51"/><path d="M1149 365l114-134-128-43z" fill="#161a2d" stroke="#161a2d" stroke-width="1.51"/><path d="M102 767l68 117 31-100z" fill="#1b202a" stroke="#1b202a" stroke-width="1.51"/><path d="M758 1032l155-27-20-68z" fill="#200e2c" stroke="#200e2c" stroke-width="1.51"/><path d="M990 1060l-77-55-155 27z" fill="#220e2b" stroke="#220e2b" stroke-width="1.51"/><path d="M64 646l-88 119 126 2z" fill="#1b1f27" stroke="#1b1f27" stroke-width="1.51"/><path d="M-14 363l-7 122 91-60z" fill="#192329" stroke="#192329" stroke-width="1.51"/><path d="M1094 1029l-5-147-57 18z" fill="#1f0b2a" stroke="#1f0b2a" stroke-width="1.51"/><path d="M1032 900l57-18-113-115z" fill="#1b0c2a" stroke="#1b0c2a" stroke-width="1.51"/><path d="M1248 648l7-60-160 58z" fill="#170c2a" stroke="#170c2a" stroke-width="1.51"/><path d="M1318 235l-47 119 106-9z" fill="#1b182d" stroke="#1b182d" stroke-width="1.51"/><path d="M1262 481l9-127-122 11z" fill="#17122d" stroke="#17122d" stroke-width="1.51"/><path d="M1253 799l-5-151-95 134z" fill="#190a29" stroke="#190a29" stroke-width="1.51"/><path d="M1153 782l95-134-153-2z" fill="#180b2a" stroke="#180b2a" stroke-width="1.51"/><path d="M1131 95l-21-123-82 44z" fill="#192029" stroke="#192029" stroke-width="1.51"/><path d="M1028 16l-57-172-90 60z" fill="#1c1f26" stroke="#1c1f26" stroke-width="1.51"/><path d="M881-96l90-60-218-4z" fill="#1e1f24" stroke="#1e1f24" stroke-width="1.51"/><path d="M1248 72L1110-28l21 123z" fill="#191f29" stroke="#191f29" stroke-width="1.51"/><path d="M1271 354l-8-123-114 134z" fill="#17172d" stroke="#17172d" stroke-width="1.51"/><path d="M-121 448l66 107 34-70z" fill="#1c2027" stroke="#1c2027" stroke-width="1.51"/><path d="M-38 73l33 121 128-91z" fill="#153229" stroke="#153229" stroke-width="1.51"/><path d="M182-12l-64-3 67 85z" fill="#163228" stroke="#163228" stroke-width="1.51"/><path d="M207-137L118-15l64 3z" fill="#193125" stroke="#193125" stroke-width="1.51"/><path d="M1110-28L971-156l57 172z" fill="#1c1f26" stroke="#1c1f26" stroke-width="1.51"/><path d="M465 1018l-167 30 268-18z" fill="#231b2d" stroke="#231b2d" stroke-width="1.51"/><path d="M170 884l58 106 122-108z" fill="#1e212d" stroke="#1e212d" stroke-width="1.51"/><path d="M93 915l135 75-58-106z" fill="#20202a" stroke="#20202a" stroke-width="1.51"/><path d="M-21 485l-34 70 177 29z" fill="#1a2129" stroke="#1a2129" stroke-width="1.51"/><path d="M102 767l-9 148 77-31z" fill="#1e2029" stroke="#1e2029" stroke-width="1.51"/><path d="M-121 448l100 37 7-122z" fill="#1b2228" stroke="#1b2228" stroke-width="1.51"/><path d="M228 990l70 58 52-166z" fill="#21212d" stroke="#21212d" stroke-width="1.51"/><path d="M-55 555l20 117 99-26z" fill="#1b1f27" stroke="#1b1f27" stroke-width="1.51"/><path d="M324-108l-117-29L296-6z" fill="#183127" stroke="#183127" stroke-width="1.51"/><path d="M463-146l-256 9 117 29z" fill="#1a2e25" stroke="#1a2e25" stroke-width="1.51"/><path d="M73-154l134 17 256-9z" fill="#1a3024" stroke="#1a3024" stroke-width="1.51"/><path d="M-24 765L93 915l9-148z" fill="#1d1f27" stroke="#1d1f27" stroke-width="1.51"/><path d="M228 990l-156 57 226 1z" fill="#25212b" stroke="#25212b" stroke-width="1.51"/><path d="M1110-28l26-83-165-45z" fill="#1e1e24" stroke="#1e1e24" stroke-width="1.51"/><path d="M1263 231l-15-159-113 116z" fill="#171f2d" stroke="#171f2d" stroke-width="1.51"/><path d="M1263 231l85-115-100-44z" fill="#1a212d" stroke="#1a212d" stroke-width="1.51"/><path d="M1271 354l47-119-55-4z" fill="#19192d" stroke="#19192d" stroke-width="1.51"/><path d="M1377 345l-106 9 115 77z" fill="#1b142d" stroke="#1b142d" stroke-width="1.51"/><path d="M1355 543l-93-62-7 107z" fill="#190e2c" stroke="#190e2c" stroke-width="1.51"/><path d="M-132 680l108 85-11-93z" fill="#1e1e25" stroke="#1e1e25" stroke-width="1.51"/><path d="M-35 672l11 93 88-119z" fill="#1c1e27" stroke="#1c1e27" stroke-width="1.51"/><path d="M913 1005l77 55 42-160z" fill="#200d2a" stroke="#200d2a" stroke-width="1.51"/><path d="M1218 912l35-113-100-17z" fill="#1c0a29" stroke="#1c0a29" stroke-width="1.51"/><path d="M696 1054l294 6-232-28z" fill="#220f2c" stroke="#220f2c" stroke-width="1.51"/><path d="M-136 1054l1126 6-294-6z" fill="#24182d" stroke="#24182d" stroke-width="1.51"/><path d="M1218 912l-65-130-64 100z" fill="#1c0a29" stroke="#1c0a29" stroke-width="1.51"/><path d="M1248 648l107-105-100 45z" fill="#190d2b" stroke="#190d2b" stroke-width="1.51"/><path d="M1367 710l-12-167-107 105z" fill="#1b0c2a" stroke="#1b0c2a" stroke-width="1.51"/><path d="M-55 555l-77 125 97-8z" fill="#1d1e25" stroke="#1d1e25" stroke-width="1.51"/><path d="M-131 315l10 133 107-85z" fill="#1c2426" stroke="#1c2426" stroke-width="1.51"/><path d="M1246-36l-110-75-26 83z" fill="#1d1e25" stroke="#1d1e25" stroke-width="1.51"/><path d="M118-15L-38 73l161 30z" fill="#183128" stroke="#183128" stroke-width="1.51"/><path d="M-5 194l-126 121 117 48z" fill="#1a2928" stroke="#1a2928" stroke-width="1.51"/><path d="M-39 7l1 66 156-88z" fill="#1a3025" stroke="#1a3025" stroke-width="1.51"/><path d="M1324-3l-78-33 2 108z" fill="#1e1f28" stroke="#1e1f28" stroke-width="1.51"/><path d="M1386 431l-115-77-9 127z" fill="#19112d" stroke="#19112d" stroke-width="1.51"/><path d="M990 1060l104-31-62-129z" fill="#210c2a" stroke="#210c2a" stroke-width="1.51"/><path d="M-124 219l-7 96L-5 194z" fill="#1a2b26" stroke="#1a2b26" stroke-width="1.51"/><path d="M1355 543l31-112-124 50z" fill="#1b0f2c" stroke="#1b0f2c" stroke-width="1.51"/><path d="M1094 1029l124-117-129-30z" fill="#1f0a29" stroke="#1f0a29" stroke-width="1.51"/><path d="M1253 799l114-89-119-62z" fill="#1b0b29" stroke="#1b0b29" stroke-width="1.51"/><path d="M-38 73l-86 146 119-25z" fill="#183027" stroke="#183027" stroke-width="1.51"/><path d="M1248 72l-2-108-136 8z" fill="#1b1f27" stroke="#1b1f27" stroke-width="1.51"/><path d="M1348 116l-85 115 55 4z" fill="#1a1e2d" stroke="#1a1e2d" stroke-width="1.51"/><path d="M-38 73l-129 44 43 102z" fill="#193125" stroke="#193125" stroke-width="1.51"/><path d="M-7-152L-39 7l157-22z" fill="#1d3021" stroke="#1d3021" stroke-width="1.51"/><path d="M1465 118l-117-2-30 119z" fill="#1d202d" stroke="#1d202d" stroke-width="1.51"/><path d="M-121 448l-44 81 110 26z" fill="#1d1f25" stroke="#1d1f25" stroke-width="1.51"/><path d="M-131 315l-34 214 44-81z" fill="#1d2125" stroke="#1d2125" stroke-width="1.51"/><path d="M-167 117l2 412 34-214z" fill="#1d2724" stroke="#1d2724" stroke-width="1.51"/><path d="M1476 551l-3-132-87 12z" fill="#1e102d" stroke="#1e102d" stroke-width="1.51"/><path d="M1335 825l32-115-114 89z" fill="#1d0a29" stroke="#1d0a29" stroke-width="1.51"/><path d="M-165 529l33 151 77-125z" fill="#1e1f24" stroke="#1e1f24" stroke-width="1.51"/><path d="M-24 765l9 178 108-28z" fill="#211e26" stroke="#211e26" stroke-width="1.51"/><path d="M753-160l-680 6 390 8z" fill="#1c2a24" stroke="#1c2a24" stroke-width="1.51"/><path d="M207-137L73-154l45 139z" fill="#1b3023" stroke="#1b3023" stroke-width="1.51"/><path d="M1218 912l117-87-82-26z" fill="#1e0a29" stroke="#1e0a29" stroke-width="1.51"/><path d="M1344 904l-9-79-117 87z" fill="#200a29" stroke="#200a29" stroke-width="1.51"/><path d="M-175 829l160 114-9-178z" fill="#211d23" stroke="#211d23" stroke-width="1.51"/><path d="M93 915l-21 132 156-57z" fill="#242029" stroke="#242029" stroke-width="1.51"/><path d="M1094 1029l129-37-5-80z" fill="#210a29" stroke="#210a29" stroke-width="1.51"/><path d="M1339 1016l-116-24-129 37z" fill="#230a29" stroke="#230a29" stroke-width="1.51"/><path d="M1348 116L1324-3l-76 75z" fill="#1d202a" stroke="#1d202a" stroke-width="1.51"/><path d="M1246-36l-5-108-105 33z" fill="#1f1d23" stroke="#1f1d23" stroke-width="1.51"/><path d="M-15 943l87 104 21-132z" fill="#241f27" stroke="#241f27" stroke-width="1.51"/><path d="M298 1048l-434 6h832z" fill="#24212d" stroke="#24212d" stroke-width="1.51"/><path d="M1384-153l-143 9 5 108z" fill="#211d23" stroke="#211d23" stroke-width="1.51"/><path d="M1136-111l105-33-270-12z" fill="#1f1c22" stroke="#1f1c22" stroke-width="1.51"/><path d="M-124 219l-43-102 36 198z" fill="#1b2c25" stroke="#1b2c25" stroke-width="1.51"/><path d="M-117 3l-50 114 129-44z" fill="#1c3022" stroke="#1c3022" stroke-width="1.51"/><path d="M-117 3l79 70-1-66z" fill="#1c3022" stroke="#1c3022" stroke-width="1.51"/><path d="M1501 228l-36-110-147 117z" fill="#1f1e2d" stroke="#1f1e2d" stroke-width="1.51"/><path d="M1348 116l117 2L1324-3z" fill="#1f202b" stroke="#1f202b" stroke-width="1.51"/><path d="M1386 431l90-69-99-17z" fill="#1d142d" stroke="#1d142d" stroke-width="1.51"/><path d="M1476 551l-90-120-31 112z" fill="#1d0e2c" stroke="#1d0e2c" stroke-width="1.51"/><path d="M1476 551l-121-8 104 158z" fill="#1e0d2b" stroke="#1e0d2b" stroke-width="1.51"/><path d="M-110-95l-7 98 78 4z" fill="#1f2e1e" stroke="#1f2e1e" stroke-width="1.51"/><path d="M1473 419l3-57-90 69z" fill="#1e132d" stroke="#1e132d" stroke-width="1.51"/><path d="M73-154l-80 2L118-15z" fill="#1e2f20" stroke="#1e2f20" stroke-width="1.51"/><path d="M1459 701l-104-158 12 167z" fill="#1d0c2a" stroke="#1d0c2a" stroke-width="1.51"/><path d="M1579 184l-78 44 111 114z" fill="#231c2d" stroke="#231c2d" stroke-width="1.51"/><path d="M1467 827l-8-126-92 9z" fill="#1f0a29" stroke="#1f0a29" stroke-width="1.51"/><path d="M1223 992l121-88-126 8z" fill="#220a29" stroke="#220a29" stroke-width="1.51"/><path d="M-15 943l-28 57 115 47z" fill="#261e25" stroke="#261e25" stroke-width="1.51"/><path d="M-145 939l102 61 28-57z" fill="#261e23" stroke="#261e23" stroke-width="1.51"/><path d="M1467 827l-100-117-32 115z" fill="#1f0a29" stroke="#1f0a29" stroke-width="1.51"/><path d="M-167 117l-8 712 10-300z" fill="#1e1f24" stroke="#1e1f24" stroke-width="1.51"/><path d="M-165 529l-10 300 43-149z" fill="#1f1d22" stroke="#1f1d22" stroke-width="1.51"/><path d="M-132 680l-43 149 151-64z" fill="#1e1c22" stroke="#1e1c22" stroke-width="1.51"/><path d="M1501 228l-183 7 59 110z" fill="#1d1a2d" stroke="#1d1a2d" stroke-width="1.51"/><path d="M1324-3l60-150-138 117z" fill="#211e25" stroke="#211e25" stroke-width="1.51"/><path d="M1476 362l25-134-124 117z" fill="#1f182d" stroke="#1f182d" stroke-width="1.51"/><path d="M1567 465l-91-103-3 57z" fill="#20122d" stroke="#20122d" stroke-width="1.51"/><path d="M-7-152l-103 57L-39 7z" fill="#1f2e1e" stroke="#1f2e1e" stroke-width="1.51"/><path d="M-117 3l7-98-57 212z" fill="#1e2f1f" stroke="#1e2f1f" stroke-width="1.51"/><path d="M-175 829l30 110 130 4z" fill="#241d22" stroke="#241d22" stroke-width="1.51"/><path d="M1344 904l123-77-132-2z" fill="#210a29" stroke="#210a29" stroke-width="1.51"/><path d="M1223 992l116 24 5-112z" fill="#240a29" stroke="#240a29" stroke-width="1.51"/><path d="M990 1060l349-44-245 13z" fill="#220b29" stroke="#220b29" stroke-width="1.51"/><path d="M1484 941l-17-114-123 77z" fill="#240a29" stroke="#240a29" stroke-width="1.51"/><path d="M1582 529l-15-64-91 86z" fill="#210e2c" stroke="#210e2c" stroke-width="1.51"/><path d="M1476 551l91-86-94-46z" fill="#200f2c" stroke="#200f2c" stroke-width="1.51"/><path d="M1582 529l-106 22 101 159z" fill="#220d2b" stroke="#220d2b" stroke-width="1.51"/><path d="M1481-21L1324-3l141 121z" fill="#222029" stroke="#222029" stroke-width="1.51"/><path d="M1481-21l-97-132-60 150z" fill="#231e25" stroke="#231e25" stroke-width="1.51"/><path d="M1241-144l143-9-413-3z" fill="#201c21" stroke="#201c21" stroke-width="1.51"/><path d="M971-156l413 3-631-7z" fill="#1f1d22" stroke="#1f1d22" stroke-width="1.51"/><path d="M1577 710l-101-159-17 150z" fill="#210d2a" stroke="#210d2a" stroke-width="1.51"/><path d="M1501 228l-25 134 136-20z" fill="#21182d" stroke="#21182d" stroke-width="1.51"/><path d="M1579 184l-114-66 36 110z" fill="#211f2d" stroke="#211f2d" stroke-width="1.51"/><path d="M1568-35l-87 14-16 139z" fill="#252028" stroke="#252028" stroke-width="1.51"/><path d="M-175 829l39 225-9-115z" fill="#271d21" stroke="#271d21" stroke-width="1.51"/><path d="M-145 939l9 115 93-54z" fill="#281d22" stroke="#281d22" stroke-width="1.51"/><path d="M-43 1000l-93 54 208-7z" fill="#291f24" stroke="#291f24" stroke-width="1.51"/><path d="M72 1047l-208 7 434-6z" fill="#272028" stroke="#272028" stroke-width="1.51"/><path d="M1612 342l-136 20 91 103z" fill="#21132d" stroke="#21132d" stroke-width="1.51"/><path d="M1582 529l30-187-45 123z" fill="#22102d" stroke="#22102d" stroke-width="1.51"/><path d="M1582 529l-5 181 35-368z" fill="#220f2c" stroke="#220f2c" stroke-width="1.51"/><path d="M1565 807l12-97-118-9z" fill="#210a29" stroke="#210a29" stroke-width="1.51"/><path d="M1565 807l-106-106 8 126z" fill="#210a29" stroke="#210a29" stroke-width="1.51"/><path d="M1456 1026l28-85-140-37z" fill="#270a29" stroke="#270a29" stroke-width="1.51"/><path d="M1577 908l-12-101-98 20z" fill="#250a29" stroke="#250a29" stroke-width="1.51"/><path d="M1484 941l93-33-110-81zm-145 75l117 10-112-122z" fill="#260a29" stroke="#260a29" stroke-width="1.51"/><path d="M990 1060l466-34-117-10z" fill="#250a29" stroke="#250a29" stroke-width="1.51"/><path d="M1481-21l12-127-109-5z" fill="#261d23" stroke="#261d23" stroke-width="1.51"/><path d="M1568-35l-75-113-12 127z" fill="#271e25" stroke="#271e25" stroke-width="1.51"/><path d="M1579 184l39-73-153 7z" fill="#23222d" stroke="#23222d" stroke-width="1.51"/><path d="M1612 342l6-231-39 73z" fill="#241e2d" stroke="#241e2d" stroke-width="1.51"/><path d="M1618 111l-50-146-103 153z" fill="#25212a" stroke="#25212a" stroke-width="1.51"/><path d="M1568 1003l9-95-93 33z" fill="#2a0a29" stroke="#2a0a29" stroke-width="1.51"/><path d="M1565 807l12 101V710z" fill="#240a29" stroke="#240a29" stroke-width="1.51"/><path d="M1577 710v198l35-566z" fill="#230d2a" stroke="#230d2a" stroke-width="1.51"/><path d="M1456 1026l112-23-84-62z" fill="#2a0a29" stroke="#2a0a29" stroke-width="1.51"/><path d="M1568-35l14-92-89-21z" fill="#281e23" stroke="#281e23" stroke-width="1.51"/><path d="M1618 111l-36-238-14 92z" fill="#281f26" stroke="#281f26" stroke-width="1.51"/></svg>