<svg xmlns="http://www.w3.org/2000/svg" width="1440" height="900"><path d="M741 416l-63-20 3 82z" fill="#f4f4f3" stroke="#f4f4f3" stroke-width="1.51"/><path d="M681 478l96 21-36-83z" fill="#f2f3f2" stroke="#f2f3f2" stroke-width="1.51"/><path d="M678 396l-73 91 76-9z" fill="#f3f3f2" stroke="#f3f3f2" stroke-width="1.51"/><path d="M681 478l2 82 94-61z" fill="#edf1ee" stroke="#edf1ee" stroke-width="1.51"/><path d="M760 327l-101-5 19 74z" fill="#f1f1ef" stroke="#f1f1ef" stroke-width="1.51"/><path d="M678 396l-107-7 34 98z" fill="#f2f2f0" stroke="#f2f2f0" stroke-width="1.51"/><path d="M741 416l19-89-82 69z" fill="#f3f2f1" stroke="#f3f2f1" stroke-width="1.51"/><path d="M854 398l-94-71-19 89z" fill="#eef0ec" stroke="#eef0ec" stroke-width="1.51"/><path d="M605 487l78 73-2-82z" fill="#edf0ec" stroke="#edf0ec" stroke-width="1.51"/><path d="M659 322l-88 67 107 7z" fill="#f1f1ee" stroke="#f1f1ee" stroke-width="1.51"/><path d="M683 560l100 8-6-69z" fill="#e7eee9" stroke="#e7eee9" stroke-width="1.51"/><path d="M777 499l77-101-113 18z" fill="#eef2ef" stroke="#eef2ef" stroke-width="1.51"/><path d="M844 505l10-107-77 101z" fill="#eaefeb" stroke="#eaefeb" stroke-width="1.51"/><path d="M783 568l61-63-67-6z" fill="#e6ece7" stroke="#e6ece7" stroke-width="1.51"/><path d="M659 322l-63-14-25 81z" fill="#f0f0eb" stroke="#f0f0eb" stroke-width="1.51"/><path d="M597 246l-1 62 63 14z" fill="#efeee9" stroke="#efeee9" stroke-width="1.51"/><path d="M605 487l-26 113 104-40z" fill="#e7ede7" stroke="#e7ede7" stroke-width="1.51"/><path d="M571 389l-59 106 93-8z" fill="#f1f1ee" stroke="#f1f1ee" stroke-width="1.51"/><path d="M492 390l20 105 59-106z" fill="#f0f0ec" stroke="#f0f0ec" stroke-width="1.51"/><path d="M760 327l-15-89-86 84z" fill="#f1f0ed" stroke="#f1f0ed" stroke-width="1.51"/><path d="M852 301l-107-63 15 89z" fill="#ebede7" stroke="#ebede7" stroke-width="1.51"/><path d="M512 495l67 105 26-113z" fill="#e9ede7" stroke="#e9ede7" stroke-width="1.51"/><path d="M764 652l84-53-65-31z" fill="#dce7de" stroke="#dce7de" stroke-width="1.51"/><path d="M854 398l-2-97-92 26z" fill="#eaeee8" stroke="#eaeee8" stroke-width="1.51"/><path d="M513 332l-21 58 79-1z" fill="#efeeea" stroke="#efeeea" stroke-width="1.51"/><path d="M596 308l-83 24 58 57z" fill="#efefe9" stroke="#efefe9" stroke-width="1.51"/><path d="M521 240l-8 92 83-24z" fill="#edede6" stroke="#edede6" stroke-width="1.51"/><path d="M655 216l-58 30 62 76z" fill="#eeeee8" stroke="#eeeee8" stroke-width="1.51"/><path d="M783 568l65 31-4-94z" fill="#e0e9e1" stroke="#e0e9e1" stroke-width="1.51"/><path d="M844 505l82-26-72-81z" fill="#e7ede8" stroke="#e7ede8" stroke-width="1.51"/><path d="M764 652l19-84-100-8z" fill="#e2eae3" stroke="#e2eae3" stroke-width="1.51"/><path d="M745 238l-90-22 4 106z" fill="#efefea" stroke="#efefea" stroke-width="1.51"/><path d="M691 673l73-21-81-92z" fill="#e0e9e1" stroke="#e0e9e1" stroke-width="1.51"/><path d="M930 580l-4-101-82 26z" fill="#dee8e0" stroke="#dee8e0" stroke-width="1.51"/><path d="M854 398l70-71-72-26z" fill="#e5ebe3" stroke="#e5ebe3" stroke-width="1.51"/><path d="M926 479l6-74-78-7z" fill="#e5ece6" stroke="#e5ece6" stroke-width="1.51"/><path d="M579 600l112 73-8-113z" fill="#e1e9e1" stroke="#e1e9e1" stroke-width="1.51"/><path d="M852 301l2-51-109-12z" fill="#e8ebe4" stroke="#e8ebe4" stroke-width="1.51"/><path d="M745 238l-50-99-40 77z" fill="#eeede7" stroke="#eeede7" stroke-width="1.51"/><path d="M932 252l-78-2-2 51z" fill="#e3e9df" stroke="#e3e9df" stroke-width="1.51"/><path d="M932 405l-8-78-70 71z" fill="#e4ebe3" stroke="#e4ebe3" stroke-width="1.51"/><path d="M512 495l-28 68 95 37z" fill="#e5ebe3" stroke="#e5ebe3" stroke-width="1.51"/><path d="M579 600l19 75 93-2z" fill="#dce6dc" stroke="#dce6dc" stroke-width="1.51"/><path d="M424 483l60 80 28-68z" fill="#e9ece5" stroke="#e9ece5" stroke-width="1.51"/><path d="M523 666l75 9-19-75z" fill="#dbe6da" stroke="#dbe6da" stroke-width="1.51"/><path d="M597 246l-76-6 75 68z" fill="#edede6" stroke="#edede6" stroke-width="1.51"/><path d="M403 323l30 105 59-38z" fill="#eeede7" stroke="#eeede7" stroke-width="1.51"/><path d="M509 138l12 102 76 6z" fill="#ebeae2" stroke="#ebeae2" stroke-width="1.51"/><path d="M492 390l-59 38 79 67z" fill="#f0efec" stroke="#f0efec" stroke-width="1.51"/><path d="M403 323l89 67 21-58z" fill="#edede7" stroke="#edede7" stroke-width="1.51"/><path d="M848 599l82-19-86-75z" fill="#dce7dd" stroke="#dce7dd" stroke-width="1.51"/><path d="M926 479l95-56-89-18z" fill="#e1e9e2" stroke="#e1e9e2" stroke-width="1.51"/><path d="M914 673l16-93-82 19z" fill="#d3e2d5" stroke="#d3e2d5" stroke-width="1.51"/><path d="M433 428l-9 55 88 12z" fill="#eeefe9" stroke="#eeefe9" stroke-width="1.51"/><path d="M439 658l84 8-39-103z" fill="#dce5d9" stroke="#dce5d9" stroke-width="1.51"/><path d="M484 563l39 103 56-66z" fill="#dee7dd" stroke="#dee7dd" stroke-width="1.51"/><path d="M764 652l95 32-11-85z" fill="#d6e4d8" stroke="#d6e4d8" stroke-width="1.51"/><path d="M841 752l18-68-95-32z" fill="#d0e0d3" stroke="#d0e0d3" stroke-width="1.51"/><path d="M771 770l-7-118-73 21z" fill="#d6e4d9" stroke="#d6e4d9" stroke-width="1.51"/><path d="M781 131l-86 8 50 99z" fill="#ecece5" stroke="#ecece5" stroke-width="1.51"/><path d="M924 327l8-75-80 49z" fill="#e2e8df" stroke="#e2e8df" stroke-width="1.51"/><path d="M1000 247l-68 5-8 75z" fill="#dde6da" stroke="#dde6da" stroke-width="1.51"/><path d="M781 131l-36 107 109 12z" fill="#e8eae3" stroke="#e8eae3" stroke-width="1.51"/><path d="M655 216l-45-91-13 121z" fill="#ecece4" stroke="#ecece4" stroke-width="1.51"/><path d="M869 153l-88-22 73 119z" fill="#e4e8de" stroke="#e4e8de" stroke-width="1.51"/><path d="M521 240l-118 83 110 9z" fill="#ecebe4" stroke="#ecebe4" stroke-width="1.51"/><path d="M342 409l5 91 77-17z" fill="#edede7" stroke="#edede7" stroke-width="1.51"/><path d="M930 580l79-69-83-32z" fill="#d9e6db" stroke="#d9e6db" stroke-width="1.51"/><path d="M932 405l82-73-90-5z" fill="#dfe8de" stroke="#dfe8de" stroke-width="1.51"/><path d="M1044 592l-35-81-79 69zm-185 92l55-11-66-74z" fill="#d1e1d4" stroke="#d1e1d4" stroke-width="1.51"/><path d="M1009 511l12-88-95 56z" fill="#dde7de" stroke="#dde7de" stroke-width="1.51"/><path d="M424 483l-9 105 69-25z" fill="#e5eae1" stroke="#e5eae1" stroke-width="1.51"/><path d="M347 500l68 88 9-105z" fill="#e6eae1" stroke="#e6eae1" stroke-width="1.51"/><path d="M695 139l-85-14 45 91z" fill="#ecebe3" stroke="#ecebe3" stroke-width="1.51"/><path d="M521 240l-118-27v110z" fill="#eaeae1" stroke="#eaeae1" stroke-width="1.51"/><path d="M659 40l-49 85 85 14z" fill="#ebe7df" stroke="#ebe7df" stroke-width="1.51"/><path d="M598 675l99 89-6-91z" fill="#d6e3d8" stroke="#d6e3d8" stroke-width="1.51"/><path d="M859 684l76 55-21-66z" fill="#c9ddcd" stroke="#c9ddcd" stroke-width="1.51"/><path d="M523 666l59 76 16-67z" fill="#d5e2d5" stroke="#d5e2d5" stroke-width="1.51"/><path d="M504 768l78-26-59-76z" fill="#d1e0d1" stroke="#d1e0d1" stroke-width="1.51"/><path d="M582 742l115 22-99-89z" fill="#d3e1d4" stroke="#d3e1d4" stroke-width="1.51"/><path d="M932 252l-63-99-15 97z" fill="#e1e7dd" stroke="#e1e7dd" stroke-width="1.51"/><path d="M1021 423l-7-91-82 73z" fill="#dde7dd" stroke="#dde7dd" stroke-width="1.51"/><path d="M932 252l2-126-65 27z" fill="#dee5d9" stroke="#dee5d9" stroke-width="1.51"/><path d="M697 764l74 6-80-97z" fill="#d4e2d6" stroke="#d4e2d6" stroke-width="1.51"/><path d="M415 588l24 70 45-95z" fill="#dee6da" stroke="#dee6da" stroke-width="1.51"/><path d="M771 770l70-18-77-100z" fill="#cfe0d2" stroke="#cfe0d2" stroke-width="1.51"/><path d="M610 125l-101 13 88 108z" fill="#eaeae1" stroke="#eaeae1" stroke-width="1.51"/><path d="M1014 332l-14-85-76 80z" fill="#dce6da" stroke="#dce6da" stroke-width="1.51"/><path d="M342 409l82 74 9-55z" fill="#eeeee9" stroke="#eeeee9" stroke-width="1.51"/><path d="M415 588l-98 88 122-18z" fill="#d9e2d4" stroke="#d9e2d4" stroke-width="1.51"/><path d="M403 323l-61 86 91 19z" fill="#edece5" stroke="#edece5" stroke-width="1.51"/><path d="M318 300l24 109 61-86z" fill="#ebebe2" stroke="#ebebe2" stroke-width="1.51"/><path d="M438 164l-35 49 118 27z" fill="#e9e9df" stroke="#e9e9df" stroke-width="1.51"/><path d="M1009 511l93-24-81-64z" fill="#d7e5da" stroke="#d7e5da" stroke-width="1.51"/><path d="M1021 423l85-4-92-87z" fill="#d9e4d9" stroke="#d9e4d9" stroke-width="1.51"/><path d="M1039 662l5-70-114-12z" fill="#cbddce" stroke="#cbddce" stroke-width="1.51"/><path d="M1039 662l-109-82-16 93z" fill="#ccdecf" stroke="#ccdecf" stroke-width="1.51"/><path d="M509 138l-71 26 83 76z" fill="#e9e9de" stroke="#e9e9de" stroke-width="1.51"/><path d="M841 752l94-13-76-55z" fill="#c8dccc" stroke="#c8dccc" stroke-width="1.51"/><path d="M848 838l87-99-94 13z" fill="#c3d9c8" stroke="#c3d9c8" stroke-width="1.51"/><path d="M439 658l65 110 19-102z" fill="#d4e1d2" stroke="#d4e1d2" stroke-width="1.51"/><path d="M582 742l13 91 102-69z" fill="#ceded0" stroke="#ceded0" stroke-width="1.51"/><path d="M697 764l55 93 19-87z" fill="#cdded2" stroke="#cdded2" stroke-width="1.51"/><path d="M1000 247l-66-121-2 126z" fill="#dbe4d7" stroke="#dbe4d7" stroke-width="1.51"/><path d="M869 153l-22-83-66 61z" fill="#e4e5da" stroke="#e4e5da" stroke-width="1.51"/><path d="M754 40h-95l36 99z" fill="#ece5de" stroke="#ece5de" stroke-width="1.51"/><path d="M925 70h-78l22 83z" fill="#dfe1d5" stroke="#dfe1d5" stroke-width="1.51"/><path d="M610 125l-14-86-87 99z" fill="#e9e5dc" stroke="#e9e5dc" stroke-width="1.51"/><path d="M754 40l-59 99 86-8z" fill="#eae7df" stroke="#eae7df" stroke-width="1.51"/><path d="M509 138l-28-99-43 125z" fill="#e7e4d9" stroke="#e7e4d9" stroke-width="1.51"/><path d="M847 70l-93-30 27 91z" fill="#e6e3da" stroke="#e6e3da" stroke-width="1.51"/><path d="M439 658l-8 99 73 11z" fill="#d0dece" stroke="#d0dece" stroke-width="1.51"/><path d="M347 500l-27 74 95 14z" fill="#e2e8dd" stroke="#e2e8dd" stroke-width="1.51"/><path d="M252 484l68 90 27-74z" fill="#e5e8de" stroke="#e5e8de" stroke-width="1.51"/><path d="M1044 592l58-105-93 24z" fill="#d0e1d4" stroke="#d0e1d4" stroke-width="1.51"/><path d="M1014 332l79-19-93-66z" fill="#d7e2d5" stroke="#d7e2d5" stroke-width="1.51"/><path d="M403 213l-85 87 85 23z" fill="#e9e9df" stroke="#e9e9df" stroke-width="1.51"/><path d="M342 409l-90 75 95 16z" fill="#ecece5" stroke="#ecece5" stroke-width="1.51"/><path d="M336 215l-18 85 85-87z" fill="#e8e8dd" stroke="#e8e8dd" stroke-width="1.51"/><path d="M1102 487l4-68-85 4z" fill="#d8e5da" stroke="#d8e5da" stroke-width="1.51"/><path d="M1000 247l35-80-101-41z" fill="#d8e2d3" stroke="#d8e2d3" stroke-width="1.51"/><path d="M935 739l104-77-125 11z" fill="#c5dbc9" stroke="#c5dbc9" stroke-width="1.51"/><path d="M1044 592l77-9-19-96z" fill="#cbdece" stroke="#cbdece" stroke-width="1.51"/><path d="M516 826l79 7-13-91z" fill="#cbdcce" stroke="#cbdcce" stroke-width="1.51"/><path d="M771 770l77 68-7-86z" fill="#c7dbcc" stroke="#c7dbcc" stroke-width="1.51"/><path d="M659 40l-63-1 14 86z" fill="#eae3db" stroke="#eae3db" stroke-width="1.51"/><path d="M661-27l-65 66 63 1z" fill="#eadfd7" stroke="#eadfd7" stroke-width="1.51"/><path d="M1106 419l-13-106-79 19z" fill="#d6e3d6" stroke="#d6e3d6" stroke-width="1.51"/><path d="M504 768l12 58 66-84z" fill="#ccddcd" stroke="#ccddcd" stroke-width="1.51"/><path d="M317 676l114 81 8-99z" fill="#d2dfcf" stroke="#d2dfcf" stroke-width="1.51"/><path d="M595 833l96 25 6-94z" fill="#cbddd1" stroke="#cbddd1" stroke-width="1.51"/><path d="M691 858l61-1-55-93z" fill="#ccddd2" stroke="#ccddd2" stroke-width="1.51"/><path d="M353 127l50 86 35-49z" fill="#e7e6db" stroke="#e7e6db" stroke-width="1.51"/><path d="M353 127l-17 88 67-2z" fill="#e6e6da" stroke="#e6e6da" stroke-width="1.51"/><path d="M752 857l96-19-77-68z" fill="#c7dacd" stroke="#c7dacd" stroke-width="1.51"/><path d="M935 739l86 32 18-109z" fill="#bfd7c3" stroke="#bfd7c3" stroke-width="1.51"/><path d="M934 126l-9-56-56 83z" fill="#dde1d5" stroke="#dde1d5" stroke-width="1.51"/><path d="M1121 236l-86-69-35 80z" fill="#d4e0d0" stroke="#d4e0d0" stroke-width="1.51"/><path d="M857-32l-106 7 3 65z" fill="#e6dcd3" stroke="#e6dcd3" stroke-width="1.51"/><path d="M1020 81l-95-11 9 56z" fill="#d9ddce" stroke="#d9ddce" stroke-width="1.51"/><path d="M426 848l90-22-12-58z" fill="#c8d9ca" stroke="#c8d9ca" stroke-width="1.51"/><path d="M595 833l3 73 93-48z" fill="#c7d9cd" stroke="#c7d9cd" stroke-width="1.51"/><path d="M1114 656l7-73-77 9z" fill="#c4d9c8" stroke="#c4d9c8" stroke-width="1.51"/><path d="M1102 487l83-84-79 16z" fill="#d3e2d6" stroke="#d3e2d6" stroke-width="1.51"/><path d="M239 415l103-6-110-68z" fill="#ebeae1" stroke="#ebeae1" stroke-width="1.51"/><path d="M239 415l13 69 90-75z" fill="#ecebe4" stroke="#ecebe4" stroke-width="1.51"/><path d="M320 574l-3 102 98-88z" fill="#dbe3d6" stroke="#dbe3d6" stroke-width="1.51"/><path d="M265 661l52 15 3-102z" fill="#d8e1d2" stroke="#d8e1d2" stroke-width="1.51"/><path d="M481 907l117-1-82-80z" fill="#c4d7ca" stroke="#c4d7ca" stroke-width="1.51"/><path d="M596 39H481l28 99z" fill="#e8e2d8" stroke="#e8e2d8" stroke-width="1.51"/><path d="M232 341l110 68-24-109z" fill="#eae9e1" stroke="#eae9e1" stroke-width="1.51"/><path d="M1039 662l75-6-70-64z" fill="#c3d9c7" stroke="#c3d9c7" stroke-width="1.51"/><path d="M1003 828l18-57-86-32z" fill="#bad4c0" stroke="#bad4c0" stroke-width="1.51"/><path d="M754 40l-3-65-92 65z" fill="#ebe1da" stroke="#ebe1da" stroke-width="1.51"/><path d="M596 39L496-7l-15 46z" fill="#e8ddd4" stroke="#e8ddd4" stroke-width="1.51"/><path d="M857-32L754 40l93 30z" fill="#e4ddd3" stroke="#e4ddd3" stroke-width="1.51"/><path d="M425 40l-72 87 85 37z" fill="#e6e3d7" stroke="#e6e3d7" stroke-width="1.51"/><path d="M247 249l-15 92 86-41z" fill="#e8e6dc" stroke="#e8e6dc" stroke-width="1.51"/><path d="M751-25l-90-2-2 67z" fill="#ebded7" stroke="#ebded7" stroke-width="1.51"/><path d="M1093 313l28-77-121 11z" fill="#d3e0d1" stroke="#d3e0d1" stroke-width="1.51"/><path d="M1035 167l-15-86-86 45z" fill="#d6decf" stroke="#d6decf" stroke-width="1.51"/><path d="M1213 315l-92-79-28 77z" fill="#cedecd" stroke="#cedecd" stroke-width="1.51"/><path d="M1185 403l-92-90 13 106z" fill="#d2e1d3" stroke="#d2e1d3" stroke-width="1.51"/><path d="M1093 741l21-85-75 6z" fill="#bcd5c1" stroke="#bcd5c1" stroke-width="1.51"/><path d="M247 249l71 51 18-85z" fill="#e7e7dc" stroke="#e7e7dc" stroke-width="1.51"/><path d="M1114 139l-94-58 15 86z" fill="#d1dccb" stroke="#d1dccb" stroke-width="1.51"/><path d="M925 70L857-32 847 70z" fill="#dfdcd0" stroke="#dfdcd0" stroke-width="1.51"/><path d="M661-27h-84l19 66z" fill="#e9ddd4" stroke="#e9ddd4" stroke-width="1.51"/><path d="M426 848l78-80-73-11z" fill="#cadaca" stroke="#cadaca" stroke-width="1.51"/><path d="M516 826l82 80-3-73z" fill="#c6d9cc" stroke="#c6d9cc" stroke-width="1.51"/><path d="M691 858l66 63-5-64z" fill="#c7dacf" stroke="#c7dacf" stroke-width="1.51"/><path d="M840 910l101-51-93-21z" fill="#bcd4c5" stroke="#bcd4c5" stroke-width="1.51"/><path d="M496-7l-71 47 56-1z" fill="#e7dcd2" stroke="#e7dcd2" stroke-width="1.51"/><path d="M481 39l-56 1 13 124z" fill="#e7e1d6" stroke="#e7e1d6" stroke-width="1.51"/><path d="M147 423l105 61-13-69z" fill="#ece7e0" stroke="#ece7e0" stroke-width="1.51"/><path d="M164 575l77 12 11-103z" fill="#e1e1d7" stroke="#e1e1d7" stroke-width="1.51"/><path d="M252 484l-11 103 79-13z" fill="#e1e5da" stroke="#e1e5da" stroke-width="1.51"/><path d="M265 661l54 75-2-60z" fill="#d1ddcc" stroke="#d1ddcc" stroke-width="1.51"/><path d="M317 676l2 60 112 21z" fill="#cfddcb" stroke="#cfddcb" stroke-width="1.51"/><path d="M1187 514l-85-27 19 96z" fill="#caddcd" stroke="#caddcd" stroke-width="1.51"/><path d="M1187 514l-2-111-83 84z" fill="#cfe0d3" stroke="#cfe0d3" stroke-width="1.51"/><path d="M848 838l93 21-6-120z" fill="#bdd5c5" stroke="#bdd5c5" stroke-width="1.51"/><path d="M840 910l8-72-96 19z" fill="#c1d7ca" stroke="#c1d7ca" stroke-width="1.51"/><path d="M577-27L496-7l100 46z" fill="#e8dcd3" stroke="#e8dcd3" stroke-width="1.51"/><path d="M687 939l70-18-66-63z" fill="#c5d9cf" stroke="#c5d9cf" stroke-width="1.51"/><path d="M241 587l24 74 55-87z" fill="#dae2d3" stroke="#dae2d3" stroke-width="1.51"/><path d="M225 125l111 90 17-88z" fill="#e5e4d7" stroke="#e5e4d7" stroke-width="1.51"/><path d="M225 125l22 124 89-34z" fill="#e6e4d7" stroke="#e6e4d7" stroke-width="1.51"/><path d="M1184 577l3-63-66 69z" fill="#c5dac9" stroke="#c5dac9" stroke-width="1.51"/><path d="M953-21l-96-11 68 102z" fill="#dcd8cb" stroke="#dcd8cb" stroke-width="1.51"/><path d="M751-25l-85-70-5 68z" fill="#ebdad4" stroke="#ebdad4" stroke-width="1.51"/><path d="M661-27l-70-74-14 74z" fill="#e9d9d0" stroke="#e9d9d0" stroke-width="1.51"/><path d="M757 921l83-11-88-53z" fill="#c1d6cb" stroke="#c1d6cb" stroke-width="1.51"/><path d="M319 736l107 112 5-91z" fill="#c9dac8" stroke="#c9dac8" stroke-width="1.51"/><path d="M1021 771l72-30-54-79z" fill="#bad5bf" stroke="#bad5bf" stroke-width="1.51"/><path d="M941 859l62-31-68-89z" fill="#bad3c1" stroke="#bad3c1" stroke-width="1.51"/><path d="M1043 903l-40-75-62 31z" fill="#b2cfbd" stroke="#b2cfbd" stroke-width="1.51"/><path d="M1110 818l-17-77-72 30z" fill="#b3d0b9" stroke="#b3d0b9" stroke-width="1.51"/><path d="M1114 656l70-79-63 6z" fill="#c1d8c5" stroke="#c1d8c5" stroke-width="1.51"/><path d="M870 1015l47-85-77-20z" fill="#b5cfc3" stroke="#b5cfc3" stroke-width="1.51"/><path d="M598 906l89 33 4-81z" fill="#c5d8cd" stroke="#c5d8cd" stroke-width="1.51"/><path d="M683 991l4-52-89-33z" fill="#c1d5cb" stroke="#c1d5cb" stroke-width="1.51"/><path d="M1184 688V577l-70 79z" fill="#bbd4c0" stroke="#bbd4c0" stroke-width="1.51"/><path d="M1016-5l-63-16-28 91z" fill="#d8d6c7" stroke="#d8d6c7" stroke-width="1.51"/><path d="M1121 236l-7-97-79 28z" fill="#d0ddcb" stroke="#d0ddcb" stroke-width="1.51"/><path d="M1190 163l-76-24 7 97z" fill="#ccdbc7" stroke="#ccdbc7" stroke-width="1.51"/><path d="M425 40l-89 32 17 55z" fill="#e5dfd3" stroke="#e5dfd3" stroke-width="1.51"/><path d="M343-19l-7 91 89-32z" fill="#e5dbcf" stroke="#e5dbcf" stroke-width="1.51"/><path d="M426 848l55 59 35-81z" fill="#c4d6c8" stroke="#c4d6c8" stroke-width="1.51"/><path d="M400 933l81-26-55-59z" fill="#c1d4c6" stroke="#c1d4c6" stroke-width="1.51"/><path d="M1016-5l-91 75 95 11z" fill="#d6d8c9" stroke="#d6d8c9" stroke-width="1.51"/><path d="M1185 403l28-88-120-2z" fill="#cedecf" stroke="#cedecf" stroke-width="1.51"/><path d="M1273 400l-60-85-28 88z" fill="#ccdccf" stroke="#ccdccf" stroke-width="1.51"/><path d="M1273 400l-88 3 108 74z" fill="#ccddd1" stroke="#ccddd1" stroke-width="1.51"/><path d="M577-27l-85-81 4 101z" fill="#e7d7ce" stroke="#e7d7ce" stroke-width="1.51"/><path d="M496-7l-76-35 5 82z" fill="#e6dace" stroke="#e6dace" stroke-width="1.51"/><path d="M772-110L666-95l85 70z" fill="#ead8d2" stroke="#ead8d2" stroke-width="1.51"/><path d="M772-110l-21 85 106-7z" fill="#e5d7ce" stroke="#e5d7ce" stroke-width="1.51"/><path d="M840 910l77 20 24-71z" fill="#b7d1c2" stroke="#b7d1c2" stroke-width="1.51"/><path d="M1195 761l-11-73-91 53z" fill="#b1d0b7" stroke="#b1d0b7" stroke-width="1.51"/><path d="M754 1005l86-95-83 11z" fill="#bdd4c9" stroke="#bdd4c9" stroke-width="1.51"/><path d="M1090 57l-74-62 4 86z" fill="#d2d5c4" stroke="#d2d5c4" stroke-width="1.51"/><path d="M864-125l-92 15 85 78z" fill="#e1d2c9" stroke="#e1d2c9" stroke-width="1.51"/><path d="M1114 139l-24-82-70 24z" fill="#cfd8c6" stroke="#cfd8c6" stroke-width="1.51"/><path d="M1184 73l-94-16 24 82z" fill="#cbd5c2" stroke="#cbd5c2" stroke-width="1.51"/><path d="M1293 477l-108-74 2 111z" fill="#ccded2" stroke="#ccded2" stroke-width="1.51"/><path d="M1093 741l91-53-70-32z" fill="#b7d3bc" stroke="#b7d3bc" stroke-width="1.51"/><path d="M1110 818l-89-47-18 57z" fill="#b3d0bb" stroke="#b3d0bb" stroke-width="1.51"/><path d="M666-95l-75-6 70 74z" fill="#e9d7cf" stroke="#e9d7cf" stroke-width="1.51"/><path d="M864-125l-7 93 75-101z" fill="#ddcfc4" stroke="#ddcfc4" stroke-width="1.51"/><path d="M666-95l106-15-181 9z" fill="#e9d5ce" stroke="#e9d5ce" stroke-width="1.51"/><path d="M232 341l-85 82 92-8z" fill="#ebe6dd" stroke="#ebe6dd" stroke-width="1.51"/><path d="M241 587l-84 82 108-8z" fill="#d6ddcd" stroke="#d6ddcd" stroke-width="1.51"/><path d="M141 302l6 121 85-82z" fill="#eae3d9" stroke="#eae3d9" stroke-width="1.51"/><path d="M165 251l67 90 15-92z" fill="#e7e3d8" stroke="#e7e3d8" stroke-width="1.51"/><path d="M136 501l28 74 88-91z" fill="#e4e1d7" stroke="#e4e1d7" stroke-width="1.51"/><path d="M265 661l-22 101 76-26z" fill="#cedac8" stroke="#cedac8" stroke-width="1.51"/><path d="M319 736l-8 122 115-10z" fill="#c6d7c6" stroke="#c6d7c6" stroke-width="1.51"/><path d="M492-108l-72 66 76 35z" fill="#e6d6cb" stroke="#e6d6cb" stroke-width="1.51"/><path d="M1213 315l-5-101-87 22z" fill="#cbdbca" stroke="#cbdbca" stroke-width="1.51"/><path d="M687 939l67 66 3-84z" fill="#c0d6cd" stroke="#c0d6cd" stroke-width="1.51"/><path d="M606 1030l77-39-85-85z" fill="#bed3c9" stroke="#bed3c9" stroke-width="1.51"/><path d="M1043 903l67-85-107 10z" fill="#afcdb9" stroke="#afcdb9" stroke-width="1.51"/><path d="M170 746l73 16 22-101z" fill="#cdd7c5" stroke="#cdd7c5" stroke-width="1.51"/><path d="M1208 214l-18-51-69 73z" fill="#cadac8" stroke="#cadac8" stroke-width="1.51"/><path d="M225 125l128 2-17-55z" fill="#e4e1d3" stroke="#e4e1d3" stroke-width="1.51"/><path d="M225 125l-60 126 82-2z" fill="#e5e1d4" stroke="#e5e1d4" stroke-width="1.51"/><path d="M86 589l50-88-74-29z" fill="#e3dcd2" stroke="#e3dcd2" stroke-width="1.51"/><path d="M147 423l-11 78 116-17z" fill="#eae4dd" stroke="#eae4dd" stroke-width="1.51"/><path d="M255 61l-30 64 111-53z" fill="#e4ddcf" stroke="#e4ddcf" stroke-width="1.51"/><path d="M683 991l71 14-67-66z" fill="#c0d5cc" stroke="#c0d5cc" stroke-width="1.51"/><path d="M516 1028l90 2-8-124z" fill="#bcd1c7" stroke="#bcd1c7" stroke-width="1.51"/><path d="M243 762l68 96 8-122z" fill="#c7d7c4" stroke="#c7d7c4" stroke-width="1.51"/><path d="M1293 477l-106 37 105 78z" fill="#c3d8ca" stroke="#c3d8ca" stroke-width="1.51"/><path d="M1213 315l89-70-94-31z" fill="#c7d9c9" stroke="#c7d9c9" stroke-width="1.51"/><path d="M165 251l-24 51 91 39z" fill="#e8e1d7" stroke="#e8e1d7" stroke-width="1.51"/><path d="M420-42l-77 23 82 59z" fill="#e5d8cd" stroke="#e5d8cd" stroke-width="1.51"/><path d="M412-112l-69 93 77-23z" fill="#e4d4c8" stroke="#e4d4c8" stroke-width="1.51"/><path d="M1014 1027l29-124-126 27z" fill="#accaba" stroke="#accaba" stroke-width="1.51"/><path d="M917 930l126-27-102-44z" fill="#b2cebd" stroke="#b2cebd" stroke-width="1.51"/><path d="M311 858l89 75 26-85z" fill="#c1d4c4" stroke="#c1d4c4" stroke-width="1.51"/><path d="M343-19l-88 80 81 11z" fill="#e4dbcd" stroke="#e4dbcd" stroke-width="1.51"/><path d="M225 125l-79 25 19 101z" fill="#e5ded1" stroke="#e5ded1" stroke-width="1.51"/><path d="M591-101l-99-7 85 81z" fill="#e7d5cc" stroke="#e7d5cc" stroke-width="1.51"/><path d="M772-110l-280 2 99 7z" fill="#e8d4cc" stroke="#e8d4cc" stroke-width="1.51"/><path d="M932-133L857-32l96 11z" fill="#dbd1c5" stroke="#dbd1c5" stroke-width="1.51"/><path d="M772-110l92-15-372 17z" fill="#ead5ce" stroke="#ead5ce" stroke-width="1.51"/><path d="M243 762l13 97 55-1z" fill="#c4d4c2" stroke="#c4d4c2" stroke-width="1.51"/><path d="M164 575l-7 94 84-82z" fill="#dadcce" stroke="#dadcce" stroke-width="1.51"/><path d="M86 589l71 80 7-94z" fill="#d9d9cb" stroke="#d9d9cb" stroke-width="1.51"/><path d="M1200 836l-5-75-85 57z" fill="#aacab3" stroke="#aacab3" stroke-width="1.51"/><path d="M1110 818l85-57-102-20z" fill="#afceb6" stroke="#afceb6" stroke-width="1.51"/><path d="M1292 592l-105-78-3 63z" fill="#c1d8c7" stroke="#c1d8c7" stroke-width="1.51"/><path d="M1292 592l-108-15 103 77z" fill="#b9d3c1" stroke="#b9d3c1" stroke-width="1.51"/><path d="M516 1028l82-122-117 1z" fill="#bfd3c7" stroke="#bfd3c7" stroke-width="1.51"/><path d="M683 991l-77 39 148-25z" fill="#bcd2ca" stroke="#bcd2ca" stroke-width="1.51"/><path d="M754 1005l116 10-30-105z" fill="#b7d0c6" stroke="#b7d0c6" stroke-width="1.51"/><path d="M606 1030l264-15-116-10z" fill="#bad2ca" stroke="#bad2ca" stroke-width="1.51"/><path d="M1022-108l-90-25 21 112z" fill="#d7cdbf" stroke="#d7cdbf" stroke-width="1.51"/><path d="M1090 57l-3-86-71 24z" fill="#d0d1c0" stroke="#d0d1c0" stroke-width="1.51"/><path d="M1190 163l-6-90-70 66z" fill="#c9d7c3" stroke="#c9d7c3" stroke-width="1.51"/><path d="M1259 129l-75-56 6 90z" fill="#c6d4c2" stroke="#c6d4c2" stroke-width="1.51"/><path d="M1259 129l-69 34 18 51z" fill="#c6d7c5" stroke="#c6d7c5" stroke-width="1.51"/><path d="M1191-40l-104 11 3 86z" fill="#cbcdba" stroke="#cbcdba" stroke-width="1.51"/><path d="M1273 400l28-64-88-21z" fill="#c9dacd" stroke="#c9dacd" stroke-width="1.51"/><path d="M1367 403l-66-67-28 64z" fill="#c7d9cd" stroke="#c7d9cd" stroke-width="1.51"/><path d="M1287 654l-103-77v111z" fill="#b8d3bf" stroke="#b8d3bf" stroke-width="1.51"/><path d="M1293 477l74-74-94-3z" fill="#c8dbd0" stroke="#c8dbd0" stroke-width="1.51"/><path d="M178 821l78 38-13-97z" fill="#c4d2bf" stroke="#c4d2bf" stroke-width="1.51"/><path d="M311 858l23 83 66-8z" fill="#bed1c2" stroke="#bed1c2" stroke-width="1.51"/><path d="M157 669l13 77 95-85z" fill="#d0d8c6" stroke="#d0d8c6" stroke-width="1.51"/><path d="M348-127l64 15 80 4z" fill="#e4cfc4" stroke="#e4cfc4" stroke-width="1.51"/><path d="M1022-108l-69 87 63 16z" fill="#d5cfc0" stroke="#d5cfc0" stroke-width="1.51"/><path d="M238-42L163 72l92-11z" fill="#e3d5c8" stroke="#e3d5c8" stroke-width="1.51"/><path d="M492-108l-80-4 8 70z" fill="#e5d2c7" stroke="#e5d2c7" stroke-width="1.51"/><path d="M348-127l144 19 372-17z" fill="#e7d2c9" stroke="#e7d2c9" stroke-width="1.51"/><path d="M418 1011l63-104-81 26z" fill="#bcd1c4" stroke="#bcd1c4" stroke-width="1.51"/><path d="M418 1011l98 17-35-121z" fill="#bad0c4" stroke="#bad0c4" stroke-width="1.51"/><path d="M260 932l74 9-23-83z" fill="#bed1c1" stroke="#bed1c1" stroke-width="1.51"/><path d="M163 72l-17 78 79-25z" fill="#e4dacc" stroke="#e4dacc" stroke-width="1.51"/><path d="M63 247l12 66 66-11z" fill="#e7dcd1" stroke="#e7dcd1" stroke-width="1.51"/><path d="M163 72l62 53 30-64z" fill="#e3dacc" stroke="#e3dacc" stroke-width="1.51"/><path d="M1283 769l4-115-103 34z" fill="#afcdb7" stroke="#afcdb7" stroke-width="1.51"/><path d="M1301 336l1-91-89 70z" fill="#c7d9ca" stroke="#c7d9ca" stroke-width="1.51"/><path d="M1119-104l-97-4 65 79z" fill="#cec9b7" stroke="#cec9b7" stroke-width="1.51"/><path d="M1087-29l-65-79-6 103z" fill="#d1cdbd" stroke="#d1cdbd" stroke-width="1.51"/><path d="M136 501l-50 88 78-14z" fill="#e0dbd0" stroke="#e0dbd0" stroke-width="1.51"/><path d="M157 669l-92 15 105 62z" fill="#cfd3c1" stroke="#cfd3c1" stroke-width="1.51"/><path d="M62 472l74 29 11-78z" fill="#eae1d9" stroke="#eae1d9" stroke-width="1.51"/><path d="M75 313l72 110-6-121z" fill="#e9dfd6" stroke="#e9dfd6" stroke-width="1.51"/><path d="M1195 761l88 8-99-81z" fill="#acccb5" stroke="#acccb5" stroke-width="1.51"/><path d="M1043 903l81 8-14-93z" fill="#aac9b5" stroke="#aac9b5" stroke-width="1.51"/><path d="M1124 989v-78l-81-8z" fill="#a5c6b3" stroke="#a5c6b3" stroke-width="1.51"/><path d="M63 247l78 55 24-51z" fill="#e7ddd2" stroke="#e7ddd2" stroke-width="1.51"/><path d="M1191-40l-72-64-32 75z" fill="#cac8b5" stroke="#cac8b5" stroke-width="1.51"/><path d="M1302 245l-43-116-51 85z" fill="#c5d7c5" stroke="#c5d7c5" stroke-width="1.51"/><path d="M60 406l2 66 85-49z" fill="#ebe0d8" stroke="#ebe0d8" stroke-width="1.51"/><path d="M334 941l84 70-18-78z" fill="#bbcfc2" stroke="#bbcfc2" stroke-width="1.51"/><path d="M1124 911l76-75-90-18z" fill="#a7c9b2" stroke="#a7c9b2" stroke-width="1.51"/><path d="M870 1015l80 11-33-96z" fill="#afccbe" stroke="#afccbe" stroke-width="1.51"/><path d="M606 1030l344-4-80-11z" fill="#b5cec5" stroke="#b5cec5" stroke-width="1.51"/><path d="M75 313l-15 93 87 17z" fill="#e9ded6" stroke="#e9ded6" stroke-width="1.51"/><path d="M53 774l125 47-8-75z" fill="#c7cebb" stroke="#c7cebb" stroke-width="1.51"/><path d="M170 746l8 75 65-59z" fill="#c7d2bf" stroke="#c7d2bf" stroke-width="1.51"/><path d="M256 859l4 73 51-74z" fill="#bfd1c0" stroke="#bfd1c0" stroke-width="1.51"/><path d="M334 941l-22 79 106-9z" fill="#b8cdc0" stroke="#b8cdc0" stroke-width="1.51"/><path d="M146 150l-83 97 102 4z" fill="#e5dccf" stroke="#e5dccf" stroke-width="1.51"/><path d="M238-42l17 103 88-80z" fill="#e3d6c9" stroke="#e3d6c9" stroke-width="1.51"/><path d="M147 938l113-6-4-73z" fill="#bdcdbc" stroke="#bdcdbc" stroke-width="1.51"/><path d="M412-112l-64-15-5 108z" fill="#e3d1c5" stroke="#e3d1c5" stroke-width="1.51"/><path d="M932-133l-584 6 516 2z" fill="#ead4cd" stroke="#ead4cd" stroke-width="1.51"/><path d="M-12 302l6 125 66-21z" fill="#e9d9d1" stroke="#e9d9d1" stroke-width="1.51"/><path d="M76 150l-13 97 83-97z" fill="#e4d9cc" stroke="#e4d9cc" stroke-width="1.51"/><path d="M249-116l-11 74 105 23z" fill="#e2d1c4" stroke="#e2d1c4" stroke-width="1.51"/><path d="M1345 669l5-85-58 8z" fill="#b5d0bf" stroke="#b5d0bf" stroke-width="1.51"/><path d="M1292 592l58-8-57-107z" fill="#bdd5c6" stroke="#bdd5c6" stroke-width="1.51"/><path d="M1301 336l66-11-65-80z" fill="#c4d7c9" stroke="#c4d7c9" stroke-width="1.51"/><path d="M1345 669l-53-77-5 62z" fill="#b3cfbd" stroke="#b3cfbd" stroke-width="1.51"/><path d="M1382 498l-15-95-74 74z" fill="#c6d9cf" stroke="#c6d9cf" stroke-width="1.51"/><path d="M1389 78l-128-11-2 62z" fill="#c1cebd" stroke="#c1cebd" stroke-width="1.51"/><path d="M950 1026l64 1-97-97z" fill="#abc9bb" stroke="#abc9bb" stroke-width="1.51"/><path d="M1280 824l-85-63 5 75z" fill="#a7c8b1" stroke="#a7c8b1" stroke-width="1.51"/><path d="M606 1030l408-3-64-1z" fill="#b0ccc1" stroke="#b0ccc1" stroke-width="1.51"/><path d="M1280 824l3-55-88-8z" fill="#a7c8b1" stroke="#a7c8b1" stroke-width="1.51"/><path d="M1187 933l13-97-76 75z" fill="#a3c6b0" stroke="#a3c6b0" stroke-width="1.51"/><path d="M1259 129l2-62-77 6z" fill="#c5d1be" stroke="#c5d1be" stroke-width="1.51"/><path d="M1354 168l-95-39 43 116z" fill="#c2d4c3" stroke="#c2d4c3" stroke-width="1.51"/><path d="M1367 403v-78l-66 11z" fill="#c4d7cb" stroke="#c4d7cb" stroke-width="1.51"/><path d="M265 1033l47-13-52-88z" fill="#b6cbbd" stroke="#b6cbbd" stroke-width="1.51"/><path d="M86 589l-21 95 92-15z" fill="#d5d5c5" stroke="#d5d5c5" stroke-width="1.51"/><path d="M4 663l61 21 21-95z" fill="#d5d2c2" stroke="#d5d2c2" stroke-width="1.51"/><path d="M-23 562l109 27-24-117z" fill="#e1d7cd" stroke="#e1d7cd" stroke-width="1.51"/><path d="M1191-40l-101 97 94 16z" fill="#c9cfbb" stroke="#c9cfbb" stroke-width="1.51"/><path d="M1022-108l97 4-187-29z" fill="#d2c8b9" stroke="#d2c8b9" stroke-width="1.51"/><path d="M1261 67l-70-107-7 113z" fill="#c6cdba" stroke="#c6cdba" stroke-width="1.51"/><path d="M1367 403l89-86-89 8z" fill="#c1d5ca" stroke="#c1d5ca" stroke-width="1.51"/><path d="M1350 584l32-86-89-21z" fill="#bfd5c9" stroke="#bfd5c9" stroke-width="1.51"/><path d="M1433 478l-51 20 68 102z" fill="#bad2c6" stroke="#bad2c6" stroke-width="1.51"/><path d="M1283 769l62-100-58-15z" fill="#adcbb7" stroke="#adcbb7" stroke-width="1.51"/><path d="M163 72l-87 78h70z" fill="#e3d8ca" stroke="#e3d8ca" stroke-width="1.51"/><path d="M81 44l-5 106 87-78z" fill="#e3d4c6" stroke="#e3d4c6" stroke-width="1.51"/><path d="M1367 325v-78l-65-2z" fill="#c2d5c7" stroke="#c2d5c7" stroke-width="1.51"/><path d="M1456 317l-89-70v78z" fill="#bfd3c7" stroke="#bfd3c7" stroke-width="1.51"/><path d="M1283 769l99-18-37-82z" fill="#a7c8b3" stroke="#a7c8b3" stroke-width="1.51"/><path d="M1124 989l63-56-63-22z" fill="#a0c4af" stroke="#a0c4af" stroke-width="1.51"/><path d="M1014 1027l110-38-81-86z" fill="#a5c6b4" stroke="#a5c6b4" stroke-width="1.51"/><path d="M1299 904l-19-80-80 12z" fill="#a1c4af" stroke="#a1c4af" stroke-width="1.51"/><path d="M260 932l52 88 22-79z" fill="#b9cebf" stroke="#b9cebf" stroke-width="1.51"/><path d="M418 1011l-106 9 204 8z" fill="#b7cdc1" stroke="#b7cdc1" stroke-width="1.51"/><path d="M265 1033l-5-101-83 67z" fill="#b6c9ba" stroke="#b6c9ba" stroke-width="1.51"/><path d="M60 406l-66 21 68 45z" fill="#eadcd5" stroke="#eadcd5" stroke-width="1.51"/><path d="M-12 302l72 104 15-93z" fill="#e8dad1" stroke="#e8dad1" stroke-width="1.51"/><path d="M-12 302l87 11-12-66z" fill="#e6d9ce" stroke="#e6d9ce" stroke-width="1.51"/><path d="M1367 247l-13-79-52 77z" fill="#c1d3c4" stroke="#c1d3c4" stroke-width="1.51"/><path d="M1261 67l12-93-82-14z" fill="#c4c9b7" stroke="#c4c9b7" stroke-width="1.51"/><path d="M238-42l-63-5-12 119zm110-85l-99 11 94 97z" fill="#e2d0c3" stroke="#e2d0c3" stroke-width="1.51"/><path d="M249-116l-74 69 63 5z" fill="#e1cdbf" stroke="#e1cdbf" stroke-width="1.51"/><path d="M-6 427l-17 50 85-5z" fill="#eadbd4" stroke="#eadbd4" stroke-width="1.51"/><path d="M-94 493l71-16 17-50z" fill="#e9d7d0" stroke="#e9d7d0" stroke-width="1.51"/><path d="M-18 229l6 73 75-55z" fill="#e5d6cb" stroke="#e5d6cb" stroke-width="1.51"/><path d="M-18 229l81 18 13-97z" fill="#e4d6ca" stroke="#e4d6ca" stroke-width="1.51"/><path d="M65 684l-12 90 117-28z" fill="#cbcebc" stroke="#cbcebc" stroke-width="1.51"/><path d="M7 751l46 23 12-90z" fill="#cacbb8" stroke="#cacbb8" stroke-width="1.51"/><path d="M-23 562L4 663l82-74z" fill="#d9d2c5" stroke="#d9d2c5" stroke-width="1.51"/><path d="M175-47L81 44l82 28z" fill="#e2d0c2" stroke="#e2d0c2" stroke-width="1.51"/><path d="M-23 477v85l85-90z" fill="#e5d7ce" stroke="#e5d7ce" stroke-width="1.51"/><path d="M1382 498l51-20-66-75z" fill="#c3d7ce" stroke="#c3d7ce" stroke-width="1.51"/><path d="M1367 247l102-84-115 5z" fill="#bdd1c2" stroke="#bdd1c2" stroke-width="1.51"/><path d="M1450 600l-68-102-32 86z" fill="#b7d1c3" stroke="#b7d1c3" stroke-width="1.51"/><path d="M1450 600l-100-16-5 85z" fill="#b1cdbd" stroke="#b1cdbd" stroke-width="1.51"/><path d="M1362-22l-89-4-12 93z" fill="#c0c7b6" stroke="#c0c7b6" stroke-width="1.51"/><path d="M1191-40l13-72-85 8z" fill="#c7c4b1" stroke="#c7c4b1" stroke-width="1.51"/><path d="M312 1020l-47 13 251-5z" fill="#b5cbbf" stroke="#b5cbbf" stroke-width="1.51"/><path d="M516 1028l-251 5 341-3z" fill="#b7cdc2" stroke="#b7cdc2" stroke-width="1.51"/><path d="M606 1030l680 2-272-5z" fill="#a8c7b9" stroke="#a8c7b9" stroke-width="1.51"/><path d="M147 938l109-79-78-38z" fill="#c0cdbc" stroke="#c0cdbc" stroke-width="1.51"/><path d="M1259-90l-55-22-13 72z" fill="#c5c3b0" stroke="#c5c3b0" stroke-width="1.51"/><path d="M1119-104l85-8-272-21z" fill="#cdc5b4" stroke="#cdc5b4" stroke-width="1.51"/><path d="M53 774l33 84 92-37z" fill="#c4cbb8" stroke="#c4cbb8" stroke-width="1.51"/><path d="M64 907l22-49-99-30z" fill="#c0c4b3" stroke="#c0c4b3" stroke-width="1.51"/><path d="M86 858l61 80 31-117z" fill="#c0c9b8" stroke="#c0c9b8" stroke-width="1.51"/><path d="M-12 302l-75 17 81 108z" fill="#e8d5cd" stroke="#e8d5cd" stroke-width="1.51"/><path d="M-31 141l13 88 94-79z" fill="#e3d3c7" stroke="#e3d3c7" stroke-width="1.51"/><path d="M1014 1027l167-14-57-24z" fill="#9ec2b0" stroke="#9ec2b0" stroke-width="1.51"/><path d="M1124 989l57 24 6-80z" fill="#9dc1ad" stroke="#9dc1ad" stroke-width="1.51"/><path d="M1187 933l112-29-99-68z" fill="#a0c3ae" stroke="#a0c3ae" stroke-width="1.51"/><path d="M1353 843l-70-74-3 55z" fill="#a2c4af" stroke="#a2c4af" stroke-width="1.51"/><path d="M1353 843l29-92-99 18z" fill="#a2c5af" stroke="#a2c5af" stroke-width="1.51"/><path d="M1286 1032l13-128-112 29z" fill="#99bfab" stroke="#99bfab" stroke-width="1.51"/><path d="M-13 828l20-77-103 18z" fill="#c6c4b1" stroke="#c6c4b1" stroke-width="1.51"/><path d="M4 663l3 88 58-67z" fill="#cecdbb" stroke="#cecdbb" stroke-width="1.51"/><path d="M1362-22l-103-68 14 64z" fill="#c1c3b1" stroke="#c1c3b1" stroke-width="1.51"/><path d="M1476 404l-20-87-89 86z" fill="#c0d4ca" stroke="#c0d4ca" stroke-width="1.51"/><path d="M1461 680l-11-80-105 69z" fill="#accab9" stroke="#accab9" stroke-width="1.51"/><path d="M1433 478l43-74-109-1z" fill="#c2d6cd" stroke="#c2d6cd" stroke-width="1.51"/><path d="M1273-26l-14-64-68 50z" fill="#c4c4b2" stroke="#c4c4b2" stroke-width="1.51"/><path d="M1389 78l-130 51 95 39z" fill="#bfd0bf" stroke="#bfd0bf" stroke-width="1.51"/><path d="M147 938l30 61 83-67z" fill="#b9c8b9" stroke="#b9c8b9" stroke-width="1.51"/><path d="M71 1004l106-5-30-61z" fill="#b7c3b4" stroke="#b7c3b4" stroke-width="1.51"/><path d="M64 907l83 31-61-80z" fill="#bdc6b5" stroke="#bdc6b5" stroke-width="1.51"/><path d="M1299 904l54-61-73-19z" fill="#9ec2ae" stroke="#9ec2ae" stroke-width="1.51"/><path d="M1382 751l79-71-116-11z" fill="#a7c8b5" stroke="#a7c8b5" stroke-width="1.51"/><path d="M1469 163l-80-85-35 90z" fill="#bccfbe" stroke="#bccfbe" stroke-width="1.51"/><path d="M1532 489l-56-85-43 74z" fill="#bed4cc" stroke="#bed4cc" stroke-width="1.51"/><path d="M-10 82l-21 59 107 9z" fill="#e2d1c3" stroke="#e2d1c3" stroke-width="1.51"/><path d="M-18 229l-69 90 75-17z" fill="#e6d4c9" stroke="#e6d4c9" stroke-width="1.51"/><path d="M-23 477l-71 16 71 69z" fill="#e3d4cb" stroke="#e3d4cb" stroke-width="1.51"/><path d="M-10 82l86 68 5-106z" fill="#e2d0c2" stroke="#e2d0c2" stroke-width="1.51"/><path d="M-10 82l91-38L-6-8z" fill="#e1cabc" stroke="#e1cabc" stroke-width="1.51"/><path d="M1456 317l13-65-102-5z" fill="#bdd2c5" stroke="#bdd2c5" stroke-width="1.51"/><path d="M1534 335l-65-83-13 65z" fill="#bbd0c5" stroke="#bbd0c5" stroke-width="1.51"/><path d="M-13 828l99 30-33-84z" fill="#c3c7b5" stroke="#c3c7b5" stroke-width="1.51"/><path d="M58-47l23 91 94-91z" fill="#e1cabd" stroke="#e1cabd" stroke-width="1.51"/><path d="M-93 222l6 97 69-90z" fill="#e5d1c6" stroke="#e5d1c6" stroke-width="1.51"/><path d="M-23 562l-97 38L4 663z" fill="#d8cec0" stroke="#d8cec0" stroke-width="1.51"/><path d="M249-116l-110-12 36 81z" fill="#e1c8bb" stroke="#e1c8bb" stroke-width="1.51"/><path d="M348-127l-209-1 110 12z" fill="#e1c9bc" stroke="#e1c9bc" stroke-width="1.51"/><path d="M932-133l-793 5 209 1z" fill="#e5cfc5" stroke="#e5cfc5" stroke-width="1.51"/><path d="M-114 385l20 108 88-66z" fill="#ead6ce" stroke="#ead6ce" stroke-width="1.51"/><path d="M7 751l-20 77 66-54z" fill="#c6c7b4" stroke="#c6c7b4" stroke-width="1.51"/><path d="M1450 600l82-111-99-11z" fill="#b7d0c5" stroke="#b7d0c5" stroke-width="1.51"/><path d="M1469 733l-8-53-79 71z" fill="#a3c5b1" stroke="#a3c5b1" stroke-width="1.51"/><path d="M94-100L58-47h117z" fill="#e1c6b9" stroke="#e1c6b9" stroke-width="1.51"/><path d="M1450 46l-88-68 27 100z" fill="#bbc6b6" stroke="#bbc6b6" stroke-width="1.51"/><path d="M1389 78l-27-100-101 89z" fill="#bfc9b8" stroke="#bfc9b8" stroke-width="1.51"/><path d="M139-128l-45 28 81 53z" fill="#e0c5b8" stroke="#e0c5b8" stroke-width="1.51"/><path d="M-102 683L7 751l-3-88z" fill="#cec9b8" stroke="#cec9b8" stroke-width="1.51"/><path d="M-87 319l-27 66 108 42z" fill="#e8d4cc" stroke="#e8d4cc" stroke-width="1.51"/><path d="M-93 222l-21 163 27-66z" fill="#e6d1c7" stroke="#e6d1c7" stroke-width="1.51"/><path d="M1469 252v-89l-102 84z" fill="#bcd0c2" stroke="#bcd0c2" stroke-width="1.51"/><path d="M1540 251l-71-88v89z" fill="#b8cec1" stroke="#b8cec1" stroke-width="1.51"/><path d="M-89 147l58-6-84-72z" fill="#e1cbbe" stroke="#e1cbbe" stroke-width="1.51"/><path d="M-89 147l-4 75 62-81z" fill="#e2cec1" stroke="#e2cec1" stroke-width="1.51"/><path d="M-31 141l-62 81 75 7z" fill="#e3d1c4" stroke="#e3d1c4" stroke-width="1.51"/><path d="M1547 584l-15-95-82 111z" fill="#b1cdc1" stroke="#b1cdc1" stroke-width="1.51"/><path d="M1467 836l2-103-87 18z" fill="#9ec2ae" stroke="#9ec2ae" stroke-width="1.51"/><path d="M1467 836l-85-85-29 92z" fill="#9dc1ad" stroke="#9dc1ad" stroke-width="1.51"/><path d="M1476 404l58-69-78-18z" fill="#bcd1c7" stroke="#bcd1c7" stroke-width="1.51"/><path d="M1547 584l-97 16 93 44z" fill="#abc9bb" stroke="#abc9bb" stroke-width="1.51"/><path d="M58-47L-6-8l87 52z" fill="#e1c7ba" stroke="#e1c7ba" stroke-width="1.51"/><path d="M0-128L-6-8l64-39z" fill="#e0c1b4" stroke="#e0c1b4" stroke-width="1.51"/><path d="M1299 904l76 35-22-96z" fill="#99beac" stroke="#99beac" stroke-width="1.51"/><path d="M1181 1013l105 19-99-99z" fill="#98beab" stroke="#98beab" stroke-width="1.51"/><path d="M1014 1027l272 5-105-19z" fill="#99beac" stroke="#99beac" stroke-width="1.51"/><path d="M265 1033l1021-1-680-2z" fill="#bbd2cb" stroke="#bbd2cb" stroke-width="1.51"/><path d="M-94 493l-26 107 97-38z" fill="#dfcfc5" stroke="#dfcfc5" stroke-width="1.51"/><path d="M-114 385l-6 215 26-107z" fill="#e5d1c9" stroke="#e5d1c9" stroke-width="1.51"/><path d="M-120 600l18 83L4 663z" fill="#d4cabb" stroke="#d4cabb" stroke-width="1.51"/><path d="M1550 388l-16-53-58 69z" fill="#bbd1c8" stroke="#bbd1c8" stroke-width="1.51"/><path d="M-115 69l84 72 21-59z" fill="#e1cabd" stroke="#e1cabd" stroke-width="1.51"/><path d="M-93 222l-22-153 1 316z" fill="#e3cdc2" stroke="#e3cdc2" stroke-width="1.51"/><path d="M1354 990l21-51-76-35z" fill="#95bcaa" stroke="#95bcaa" stroke-width="1.51"/><path d="M1469 163l-19-117-61 32z" fill="#b9caba" stroke="#b9caba" stroke-width="1.51"/><path d="M1472-5l-22 51 71 19z" fill="#b7c3b4" stroke="#b7c3b4" stroke-width="1.51"/><path d="M-19 934l83-27-77-79z" fill="#bec1b0" stroke="#bec1b0" stroke-width="1.51"/><path d="M-19 934l90 70-7-97z" fill="#b9bfb0" stroke="#b9bfb0" stroke-width="1.51"/><path d="M64 907l7 97 76-66z" fill="#b9c2b3" stroke="#b9c2b3" stroke-width="1.51"/><path d="M177 999l-106 5 194 29z" fill="#b5c4b6" stroke="#b5c4b6" stroke-width="1.51"/><path d="M1534 335l6-84-71 1z" fill="#b8cec3" stroke="#b8cec3" stroke-width="1.51"/><path d="M1532 489l18-101-74 16z" fill="#bcd3cb" stroke="#bcd3cb" stroke-width="1.51"/><path d="M1286 1032l68-42-55-86z" fill="#94bcaa" stroke="#94bcaa" stroke-width="1.51"/><path d="M1543 644l-82 36 71 75z" fill="#a2c4b2" stroke="#a2c4b2" stroke-width="1.51"/><path d="M1543 644l-93-44 11 80z" fill="#a9c8b9" stroke="#a9c8b9" stroke-width="1.51"/><path d="M1532 489l15 95 3-196z" fill="#b7d0c7" stroke="#b7d0c7" stroke-width="1.51"/><path d="M1467 836l-114 7 104 76z" fill="#97bdaa" stroke="#97bdaa" stroke-width="1.51"/><path d="M1550 388l-10-137-6 84z" fill="#b8cfc5" stroke="#b8cfc5" stroke-width="1.51"/><path d="M-102 683l6 86L7 751z" fill="#cac5b2" stroke="#cac5b2" stroke-width="1.51"/><path d="M-120 600l24 169-6-86z" fill="#d0c6b5" stroke="#d0c6b5" stroke-width="1.51"/><path d="M1457 919l-104-76 22 96z" fill="#96bcab" stroke="#96bcab" stroke-width="1.51"/><path d="M1532 755l-71-75 8 53z" fill="#a0c3b0" stroke="#a0c3b0" stroke-width="1.51"/><path d="M1362-22l9-95-112 27z" fill="#bfbfae" stroke="#bfbfae" stroke-width="1.51"/><path d="M1259-90l112-27-167 5z" fill="#c1bead" stroke="#c1bead" stroke-width="1.51"/><path d="M1204-112l167-5-439-16z" fill="#c7c1ae" stroke="#c7c1ae" stroke-width="1.51"/><path d="M1440-114l-69-3-9 95z" fill="#bbbcac" stroke="#bbbcac" stroke-width="1.51"/><path d="M-88 822l69 112 6-106z" fill="#c0bfae" stroke="#c0bfae" stroke-width="1.51"/><path d="M-96 769l8 53 75 6z" fill="#c4c1ae" stroke="#c4c1ae" stroke-width="1.51"/><path d="M1521 65l-71-19 19 117z" fill="#b7c8b9" stroke="#b7c8b9" stroke-width="1.51"/><path d="M1450 46l22-51-110-17z" fill="#bac2b3" stroke="#bac2b3" stroke-width="1.51"/><path d="M1467 836l65-81-63-22z" fill="#9ac0ac" stroke="#9ac0ac" stroke-width="1.51"/><path d="M1530 858l2-103-65 81z" fill="#96bdaa" stroke="#96bdaa" stroke-width="1.51"/><path d="M-85-17l-30 86 105 13z" fill="#e0c5b8" stroke="#e0c5b8" stroke-width="1.51"/><path d="M-89 147l-26-78 22 153z" fill="#e1ccbf" stroke="#e1ccbf" stroke-width="1.51"/><path d="M-114 385l-1-316-5 531z" fill="#e7d0c8" stroke="#e7d0c8" stroke-width="1.51"/><path d="M-85-17l75 99 4-90z" fill="#e0c4b8" stroke="#e0c4b8" stroke-width="1.51"/><path d="M1466 1010l-9-91-82 20z" fill="#8fb8a8" stroke="#8fb8a8" stroke-width="1.51"/><path d="M94-100L0-128l58 81z" fill="#dfc0b3" stroke="#dfc0b3" stroke-width="1.51"/><path d="M139-128H0l94 28z" fill="#dfbfb3" stroke="#dfbfb3" stroke-width="1.51"/><path d="M932-133L0-128h139z" fill="#e3cdc1" stroke="#e3cdc1" stroke-width="1.51"/><path d="M1556 125l-35-60-52 98z" fill="#b5c8ba" stroke="#b5c8ba" stroke-width="1.51"/><path d="M-80-93l-5 76 79 9z" fill="#dfbeb1" stroke="#dfbeb1" stroke-width="1.51"/><path d="M1540 251l16-126-87 38z" fill="#b6ccbe" stroke="#b6ccbe" stroke-width="1.51"/><path d="M1550 388l6-263-16 126z" fill="#b6cdc2" stroke="#b6cdc2" stroke-width="1.51"/><path d="M1547 584l9-459-6 263z" fill="#b9cfc7" stroke="#b9cfc7" stroke-width="1.51"/><path d="M-107 936l83 60 5-62z" fill="#b8baab" stroke="#b8baab" stroke-width="1.51"/><path d="M-19 934l-5 62 95 8z" fill="#b7bcad" stroke="#b7bcad" stroke-width="1.51"/><path d="M71 1004l-177-11 371 40z" fill="#b4beb0" stroke="#b4beb0" stroke-width="1.51"/><path d="M1472-5l-32-109-78 92z" fill="#babeae" stroke="#babeae" stroke-width="1.51"/><path d="M1536-22l-96-92 32 109z" fill="#b7bcad" stroke="#b7bcad" stroke-width="1.51"/><path d="M1536-22l-64 17 49 70z" fill="#b5c0b1" stroke="#b5c0b1" stroke-width="1.51"/><path d="M1457 919l73-61-63-22z" fill="#93bba9" stroke="#93bba9" stroke-width="1.51"/><path d="M1532 755l-2 103 13-214z" fill="#9abfac" stroke="#9abfac" stroke-width="1.51"/><path d="M1543 644l-12 388 16-448z" fill="#99bfac" stroke="#99bfac" stroke-width="1.51"/><path d="M0-128l-80 35L-6-8z" fill="#dfbdb0" stroke="#dfbdb0" stroke-width="1.51"/><path d="M-85-17l5-76-35 162z" fill="#dfbeb1" stroke="#dfbeb1" stroke-width="1.51"/><path d="M-88 822l-19 114 88-2z" fill="#bdbcab" stroke="#bdbcab" stroke-width="1.51"/><path d="M-96 769l-11 167 19-114z" fill="#c1bdab" stroke="#c1bdab" stroke-width="1.51"/><path d="M-120 600l13 336 11-167z" fill="#c6c0ad" stroke="#c6c0ad" stroke-width="1.51"/><path d="M1556 125l-20-147-15 87z" fill="#b3c2b4" stroke="#b3c2b4" stroke-width="1.51"/><path d="M1457 919l73 5v-66zm-103 71l112 20-91-71z" fill="#8fb8a8" stroke="#8fb8a8" stroke-width="1.51"/><path d="M1286 1032l180-22-112-20z" fill="#8eb7a7" stroke="#8eb7a7" stroke-width="1.51"/><path d="M1466 1010l64-86-73-5z" fill="#8cb6a7" stroke="#8cb6a7" stroke-width="1.51"/><path d="M1530 858v66l13-280z" fill="#95bcaa" stroke="#95bcaa" stroke-width="1.51"/><path d="M-107 936l1 57 82 3z" fill="#b7b7a8" stroke="#b7b7a8" stroke-width="1.51"/><path d="M-24 996l-82-3 177 11z" fill="#b5b9ab" stroke="#b5b9ab" stroke-width="1.51"/><path d="M-120 600l14 393-1-57z" fill="#c1bcab" stroke="#c1bcab" stroke-width="1.51"/><path d="M1466 1010l65 22-1-108z" fill="#88b3a4" stroke="#88b3a4" stroke-width="1.51"/><path d="M1530 924l1 108 12-388z" fill="#91b9a8" stroke="#91b9a8" stroke-width="1.51"/><path d="M1286 1032h245l-65-22z" fill="#8ab4a5" stroke="#8ab4a5" stroke-width="1.51"/><path d="M265 1033l1266-1h-245z" fill="#a3c4b4" stroke="#a3c4b4" stroke-width="1.51"/><path d="M1536-22l18-107-114 15z" fill="#b5b8a9" stroke="#b5b8a9" stroke-width="1.51"/><path d="M1440-114l114-15-183 12z" fill="#b7b7a8" stroke="#b7b7a8" stroke-width="1.51"/><path d="M1371-117l183-12-622-4z" fill="#c1bdab" stroke="#c1bdab" stroke-width="1.51"/><path d="M1556 125l-2-254-18 107z" fill="#b3bdaf" stroke="#b3bdaf" stroke-width="1.51"/></svg>