<svg xmlns="http://www.w3.org/2000/svg" viewBox="0 0 135.467 135.467" height="512" width="512"><g style="line-height:476.69509888px;-inkscape-font-specification:'OTADESIGN Rounded'"><path d="M16.53 20.263c-1.978 0-3.862.33-5.652.99-3.202 1.13-5.84 3.155-7.911 6.075C.989 30.153 0 33.308 0 36.793v61.88c0 4.521 1.601 8.43 4.803 11.726 3.297 3.203 7.206 4.804 11.727 4.804 4.615 0 8.523-1.601 11.726-4.804 3.296-3.296 4.945-7.205 4.945-11.725V87.42c.035-2.438 2.546-1.798 3.814 0 2.377 4.115 7.415 7.65 13.28 7.629 5.866-.02 10.737-2.92 13.28-7.63.963-1.135 3.678-3.07 3.956 0v11.254c0 4.52 1.601 8.429 4.804 11.725 3.296 3.203 7.205 4.804 11.726 4.804 4.615 0 8.524-1.601 11.726-4.804 3.296-3.296 4.945-7.205 4.945-11.725v-61.88c0-3.486-1.036-6.64-3.108-9.466-1.978-2.92-4.568-4.945-7.77-6.076-1.884-.659-3.768-.989-5.652-.989-5.086 0-9.371 1.979-12.856 5.934L54.571 45.83c-.377.283-1.625 2.443-4.276 2.443-2.65 0-3.757-2.16-4.134-2.443L29.245 26.197c-3.391-3.955-7.63-5.934-12.715-5.934zm104.526 0c-3.956 0-7.346 1.413-10.172 4.239-2.731 2.731-4.097 6.075-4.097 10.03 0 3.957 1.366 7.347 4.097 10.173 2.826 2.731 6.216 4.097 10.172 4.097 3.956 0 7.347-1.366 10.172-4.097 2.826-2.826 4.239-6.216 4.239-10.172 0-3.956-1.413-7.3-4.239-10.031-2.825-2.826-6.216-4.239-10.172-4.239zm.141 31.364c-3.956 0-7.346 1.413-10.172 4.239-2.825 2.825-4.238 6.216-4.238 10.172v34.896c0 3.956 1.413 7.346 4.238 10.172 2.826 2.731 6.216 4.097 10.172 4.097 3.956 0 7.3-1.366 10.031-4.097 2.826-2.826 4.239-6.216 4.239-10.172V66.038c0-3.956-1.413-7.347-4.239-10.172-2.731-2.826-6.075-4.239-10.03-4.239z" style="-inkscape-font-specification:'OTADESIGN Rounded'" aria-label="Mi" font-weight="400" font-size="141.034" font-family="OTADESIGN Rounded" letter-spacing="0" word-spacing="0" fill="#2fa3bc"/></g></svg>