<svg xmlns="http://www.w3.org/2000/svg" width="32" height="32" viewBox="0 0 8.467 8.467"><g fill-opacity=".05"><path d="M0 8.467V0h8.467v.265H.265v8.202z"/><path d="M4.233 3.704h.265v.53h.53v.264h-.53v.53h-.265v-.53h-.529v-.265h.53zm-.793.529v.265H2.38v-.265zm2.91 0v.265H5.292v-.265zm1.323 0v.265H6.615v-.265zm-5.556 0v.265H1.058v-.265zm2.116-.793h.265V2.38h-.265zm0-1.323h.265V1.058h-.265zm0 4.233h.265V5.292h-.265zm0 1.323h.265V6.615h-.265zm0-6.879h.265v-.53h-.265zm0 7.673h.265v-.53h-.265zM.794 4.233v.265h-.53v-.265zm7.673 0v.265h-.53v-.265z"/></g></svg>