<svg xmlns="http://www.w3.org/2000/svg" viewBox="0 0 135.467 135.467" height="512" width="512"><path fill="#2ba3bc" d="M0 0h135.467v135.467H0z"/><g style="line-height:476.69509888px;-inkscape-font-specification:'OTADESIGN Rounded'"><path d="M38.258 40.383c-1.136 0-2.218.19-3.246.568-1.839.65-3.354 1.812-4.544 3.49-1.136 1.622-1.703 3.434-1.703 5.435v35.539c0 2.596.92 4.84 2.758 6.734 1.893 1.84 4.138 2.759 6.735 2.759 2.65 0 4.895-.92 6.734-2.759 1.893-1.893 2.84-4.138 2.84-6.734v-6.463c.02-1.4 1.462-1.032 2.19 0 1.365 2.364 4.259 4.393 7.627 4.382 3.37-.012 6.167-1.677 7.627-4.382.554-.652 2.112-1.764 2.272 0v6.463c0 2.596.92 4.84 2.759 6.734 1.893 1.84 4.138 2.759 6.734 2.759 2.651 0 4.896-.92 6.735-2.759 1.893-1.893 2.84-4.138 2.84-6.734V49.876c0-2.001-.595-3.813-1.785-5.436-1.136-1.677-2.624-2.84-4.463-3.489a9.77 9.77 0 0 0-3.246-.568c-2.92 0-5.381 1.136-7.383 3.408l-9.634 11.275c-.216.162-.933 1.403-2.456 1.403-1.522 0-2.157-1.24-2.374-1.403L45.56 43.79c-1.947-2.272-4.381-3.408-7.302-3.408zm60.03 0c-2.272 0-4.219.812-5.842 2.434-1.568 1.57-2.353 3.49-2.353 5.761 0 2.272.785 4.22 2.353 5.842 1.623 1.569 3.57 2.353 5.842 2.353s4.22-.784 5.842-2.353c1.623-1.623 2.434-3.57 2.434-5.842s-.811-4.192-2.434-5.76c-1.623-1.623-3.57-2.435-5.842-2.435zm.081 18.013c-2.272 0-4.219.811-5.842 2.434-1.623 1.623-2.434 3.57-2.434 5.842v20.04c0 2.273.811 4.22 2.434 5.843 1.623 1.568 3.57 2.353 5.842 2.353s4.192-.785 5.76-2.353c1.624-1.623 2.435-3.57 2.435-5.842V66.672c0-2.272-.811-4.22-2.434-5.842-1.569-1.623-3.49-2.434-5.76-2.434z" style="-inkscape-font-specification:'OTADESIGN Rounded'" aria-label="Mi" font-weight="400" font-size="141.034" font-family="OTADESIGN Rounded" letter-spacing="0" word-spacing="0" fill="#fff"/></g></svg>